<svg width="22" height="20" viewBox="0 0 22 20" fill="none" xmlns="http://www.w3.org/2000/svg">
<path d="M8.91299 10.7967C9.30351 10.4062 9.30351 9.77302 8.91299 9.38249L2.54903 3.01853C2.1585 2.62801 1.52534 2.62801 1.13481 3.01853C0.744289 3.40906 0.744289 4.04222 1.13481 4.43275L6.79167 10.0896L1.13481 15.7465C0.744289 16.137 0.744289 16.7701 1.13481 17.1607C1.52534 17.5512 2.1585 17.5512 2.54903 17.1607L8.91299 10.7967ZM7.14282 11.0896H8.20588V9.0896H7.14282V11.0896Z" fill="white"/>
<path d="M14.3344 10.9028C14.7835 10.4537 14.7835 9.72553 14.3344 9.27643L7.01581 1.95787C6.5667 1.50877 5.83856 1.50877 5.38946 1.95787C4.94036 2.40698 4.94036 3.13511 5.38946 3.58422L11.8948 10.0896L5.38946 16.595C4.94036 17.0441 4.94036 17.7722 5.38946 18.2213C5.83856 18.6704 6.5667 18.6704 7.01581 18.2213L14.3344 10.9028ZM12.4581 11.2396H13.5212V8.9396H12.4581V11.2396Z" fill="white"/>
<path d="M20.8188 11.0088C21.3265 10.5012 21.3265 9.67804 20.8188 9.17036L12.5457 0.897212C12.038 0.389531 11.2149 0.389531 10.7072 0.897212C10.1995 1.40489 10.1995 2.22801 10.7072 2.73569L18.0611 10.0896L10.7072 17.4435C10.1995 17.9512 10.1995 18.7743 10.7072 19.282C11.2149 19.7897 12.038 19.7897 12.5457 19.282L20.8188 11.0088ZM18.8365 11.3896H19.8996V8.7896H18.8365V11.3896Z" fill="white"/>
</svg>
