<svg width="171" height="49" viewBox="0 0 171 49" fill="none" xmlns="http://www.w3.org/2000/svg">
<path d="M75.9352 16.6562C75.2113 17.4531 74.6644 18.2474 74.2946 19.0391C73.93 19.8307 73.4977 21.1406 72.9977 22.9688L71.6462 27.8906L71.8024 28.5L72.7633 29.3594H69.2008L70.2243 28.5L68.8415 23.4922L67.4977 28.3906L68.8415 30H64.8493L64.693 29.7891H68.4118L67.2399 28.4375L68.7165 23.0938L68.4587 22.1641L66.8571 28.0156L66.9821 28.5L67.8962 29.3594H64.3258L65.3883 28.5L63.1149 20.3203L61.943 19.3359H65.7633L64.693 20.3203L66.4821 26.7578L66.7555 25.8125L65.2477 20.4375L65.9587 19.8047L66.1383 19.9297L65.4899 20.5078L66.8571 25.4219L68.529 19.3359H69.2633L71.2946 26.6953L71.5446 25.8125L69.7477 19.3359H69.9665L71.6462 25.4219L72.3805 22.7812C72.8389 21.125 73.068 20.0469 73.068 19.5469C73.068 18.9896 72.8076 18.5521 72.2868 18.2344C72.8962 18.0417 73.5498 17.7786 74.2477 17.4453C74.9456 17.112 75.4665 16.8125 75.8102 16.5469L75.9352 16.6562ZM76.404 17.25C75.779 17.9375 75.2633 18.7135 74.8571 19.5781C74.4561 20.4427 74.0446 21.651 73.6227 23.2031L72.2399 28.25L73.7399 30H69.7321L69.5524 29.7891H73.2633L71.9977 28.3281L73.4352 23.0938C73.8623 21.5417 74.2712 20.349 74.6618 19.5156C75.0524 18.6771 75.5732 17.8776 76.2243 17.1172L76.404 17.25ZM83.7786 19.3359L83.6536 19.4844C83.1224 20.1354 82.7005 20.8828 82.388 21.7266C82.3359 21.6068 82.2968 21.5182 82.2708 21.4609C81.9843 20.8359 81.677 20.4323 81.3489 20.25C81.0208 20.0677 80.4323 19.9766 79.5833 19.9766C79.1927 19.9766 78.7239 19.9896 78.177 20.0156V23.6094H78.677V20.4297C79.0729 20.3932 79.4505 20.375 79.8099 20.375C80.4713 20.375 80.9583 20.4453 81.2708 20.5859C81.5833 20.7266 81.8619 21 82.1067 21.4062C82.0338 21.3542 81.9817 21.3151 81.9505 21.2891C81.5286 20.9557 81.2239 20.7578 81.0364 20.6953C80.8489 20.6328 80.4791 20.6016 79.927 20.6016C79.7604 20.6016 79.4635 20.612 79.0364 20.6328L78.8724 20.6406V23.6094H80.3099L81.3177 22.2266V25.5938L80.3099 24.2891H78.177V28.6719H78.677V24.6562H80.3724L80.5755 24.8594H78.8724V28.6719C79.9349 28.6719 80.6901 28.5964 81.138 28.4453C81.5859 28.2943 81.9375 27.9974 82.1927 27.5547L82.6067 26.8438C82.6224 26.8125 82.6536 26.7552 82.7005 26.6719C82.8359 27.2448 83.0026 27.7031 83.2005 28.0469C83.4036 28.3906 83.7369 28.7917 84.2005 29.25H75.4427L76.6302 28.3438V24.8594C76.1927 24.9115 75.7968 25.0469 75.4427 25.2656L75.3333 25.1016C75.651 24.8724 76.0833 24.724 76.6302 24.6562V24.2891C76.5416 24.2786 76.4791 24.2734 76.4427 24.2734C75.9114 24.2734 75.427 24.4688 74.9895 24.8594C75.2291 24.026 75.776 23.6094 76.6302 23.6094V20.2734L75.4427 19.3359H83.7786ZM84.1536 19.8828L84.0989 19.9531C83.4635 20.8073 83.039 21.5234 82.8255 22.1016L82.6927 21.9375C83.0416 21.1302 83.4921 20.3906 84.0442 19.7188L84.1536 19.8828ZM81.8567 22.4844V25.9375L81.6614 25.8359V22.3828L81.8567 22.4844ZM85.0911 29.2969L84.6849 30H76.1536L76.0286 29.7891H84.5833L84.8489 29.2969C84.0989 28.6042 83.5703 27.8646 83.263 27.0781L83.513 27.1719C83.7994 27.8385 84.2838 28.5052 84.9661 29.1719L85.0911 29.2969ZM85.1923 19.3359H88.9267L87.8251 20.4062V28.7578H87.8876L88.1689 28.7812H88.2392V20.4844L89.0829 19.6328L89.1923 19.8047L88.4345 20.5781V28.7812C88.6689 28.8021 88.8928 28.8125 89.1064 28.8125C89.9345 28.8125 90.5595 28.6302 90.9814 28.2656C91.4085 27.8958 91.6949 27.2891 91.8407 26.4453C92.3303 27.8672 92.8329 28.8385 93.3486 29.3594H85.1923L86.2704 28.4766V20.3281L85.1923 19.3359ZM94.1142 29.2969L93.7626 30H85.6064L85.4111 29.7891H93.6767L93.9032 29.2969C93.3303 28.5938 92.872 27.8099 92.5282 26.9453L92.497 26.8594L92.747 26.9531L92.8017 27.0859C93.1506 27.8568 93.5673 28.5677 94.0517 29.2188L94.1142 29.2969ZM93.8873 19.3359H97.6216L96.5201 20.4062V28.7578H96.5826L96.8638 28.7812H96.9341V20.4844L97.7779 19.6328L97.8873 19.8047L97.1294 20.5781V28.7812C97.3638 28.8021 97.5878 28.8125 97.8013 28.8125C98.6294 28.8125 99.2544 28.6302 99.6763 28.2656C100.103 27.8958 100.39 27.2891 100.536 26.4453C101.025 27.8672 101.528 28.8385 102.044 29.3594H93.8873L94.9654 28.4766V20.3281L93.8873 19.3359ZM102.809 29.2969L102.458 30H94.3013L94.106 29.7891H102.372L102.598 29.2969C102.025 28.5938 101.567 27.8099 101.223 26.9453L101.192 26.8594L101.442 26.9531L101.497 27.0859C101.846 27.8568 102.262 28.5677 102.747 29.2188L102.809 29.2969ZM102.582 19.3359H106.285L105.238 20.3984V28.5312L106.223 29.3594H102.582L103.668 28.4609V20.3125L102.582 19.3359ZM106.637 19.7812L105.84 20.5703V28.5312L107.153 30H103.09L102.895 29.7891H106.692L105.621 28.6094V20.5L106.504 19.625L106.637 19.7812ZM116.238 19.6094L114.777 22.4844C114.683 21.6667 114.426 21.0417 114.004 20.6094C113.587 20.1771 113.035 19.9609 112.347 19.9609C111.368 19.9609 110.605 20.3411 110.058 21.1016C109.517 21.862 109.246 22.9271 109.246 24.2969C109.246 27.3125 110.48 28.8203 112.949 28.8203H114.207V24.7656H112.238C111.811 24.7656 111.504 24.7422 111.316 24.6953C111.134 24.6484 110.957 24.5469 110.785 24.3906V24.1953C110.972 24.3359 111.16 24.4297 111.347 24.4766C111.535 24.5182 111.84 24.5391 112.262 24.5391H114.207V24.1172H112.035H111.683C110.907 24.1172 110.519 23.8359 110.519 23.2734C110.519 23.0547 110.584 22.8672 110.715 22.7109C110.845 22.5547 111.001 22.4766 111.183 22.4766C111.319 22.4766 111.436 22.526 111.535 22.625C111.639 22.724 111.691 22.8411 111.691 22.9766C111.691 23.2057 111.608 23.3385 111.441 23.375L111.254 23.4141C111.191 23.4297 111.16 23.4557 111.16 23.4922C111.16 23.5599 111.246 23.5938 111.418 23.5938H111.683H116.84L115.762 24.6484V28.5L116.762 29.3594H112.769H111.98C111.319 29.3594 110.772 29.2786 110.34 29.1172C109.907 28.9557 109.47 28.6693 109.027 28.2578C107.98 27.2995 107.457 26.0156 107.457 24.4062C107.457 22.7448 107.952 21.4479 108.941 20.5156C109.806 19.6979 110.832 19.2891 112.019 19.2891C112.551 19.2891 113.16 19.3828 113.847 19.5703C114.551 19.763 115.014 19.8594 115.238 19.8594C115.566 19.8594 115.9 19.776 116.238 19.6094ZM116.707 20.1016L115.371 22.7266L115.183 22.6406L116.527 20.0078L116.707 20.1016ZM114.207 21.2891L114.066 21.1875C113.472 20.7656 112.931 20.5547 112.441 20.5547C111.847 20.5547 111.334 20.7656 110.902 21.1875C110.59 21.5 110.363 21.9089 110.222 22.4141C110.087 22.9193 110.019 23.5859 110.019 24.4141C110.019 25.4661 110.124 26.2708 110.332 26.8281C110.54 27.3854 110.923 27.888 111.48 28.3359V28.4219C110.876 28.0625 110.441 27.5573 110.176 26.9062C109.91 26.25 109.777 25.362 109.777 24.2422C109.777 23.0078 110.009 22.0495 110.472 21.3672C110.936 20.6797 111.587 20.3359 112.426 20.3359C113.155 20.3359 113.749 20.638 114.207 21.2422V21.2891ZM117.176 24.0391L116.371 24.8438V28.5078L117.668 30L114.566 29.9766L111.754 30.0078C111.577 30.0078 111.441 30.0026 111.347 29.9922C111.019 29.9557 110.689 29.8125 110.355 29.5625H110.519C110.874 29.7188 111.358 29.7969 111.972 29.7969L112.363 29.7891H117.23L116.152 28.5938V24.7656L117.051 23.8594L117.176 24.0391ZM118.425 19.3359H122.097L121.035 20.375V23.75C121.154 23.7708 121.295 23.7865 121.456 23.7969V20.4531L122.308 19.6094L122.464 19.75L121.66 20.5469V23.8047L121.917 23.8281C122.318 23.8646 122.706 23.8828 123.081 23.8828C123.623 23.8828 124.089 23.8568 124.48 23.8047V20.2109L123.527 19.3359H127.136L126.058 20.375V28.5156L127.003 29.3594H123.41L124.48 28.4453V25.1328C124.042 25.237 123.592 25.2891 123.128 25.2891C122.691 25.2891 122.238 25.2656 121.769 25.2188L121.66 25.2109V28.5156L122.949 30H118.91L118.706 29.7891H122.519L121.456 28.625V25.0312L121.683 25.0469C122.371 25.099 122.868 25.125 123.175 25.125C123.675 25.125 124.11 25.0573 124.48 24.9219V24.6406C123.99 24.7135 123.42 24.75 122.769 24.75C122.42 24.75 122.165 24.7422 122.003 24.7266L121.214 24.6562C121.183 24.651 121.123 24.6458 121.035 24.6406V28.5156L122.035 29.3594H118.425L119.472 28.4453V25.0312C119.035 25.0312 118.686 25.2031 118.425 25.5469L118.261 25.4688C118.563 25.0885 118.967 24.8776 119.472 24.8359V24.5469C118.889 24.5469 118.428 24.7682 118.089 25.2109L117.972 25.1328C118.279 24.3828 118.779 23.9401 119.472 23.8047V20.2891L118.425 19.3359ZM127.464 19.7734L126.667 20.5469V28.5156L127.964 30H123.91L123.714 29.7891H127.519L126.472 28.6094V20.4688L127.339 19.6094L127.464 19.7734ZM136.925 19.3359C136.878 19.4245 136.847 19.4844 136.831 19.5156L136.3 20.4531C136.118 20.7865 135.948 21.2031 135.792 21.7031L135.776 21.7422L135.698 21.6875L135.675 21.5859C135.524 20.9922 135.308 20.5807 135.026 20.3516C134.75 20.1224 134.326 20.0078 133.753 20.0078C133.519 20.0078 133.284 20.0182 133.05 20.0391H132.956V28.5078L133.878 29.3594H130.308L131.401 28.4453V20.6719L130.847 20.6641C130.31 20.6641 129.927 20.7708 129.698 20.9844C129.474 21.1927 129.342 21.5625 129.3 22.0938H129.097C129.154 21.4844 129.31 21.0599 129.565 20.8203C129.826 20.5807 130.253 20.4609 130.847 20.4609L131.315 20.4688H131.401V20.0859C131.136 20.0547 130.883 20.0391 130.644 20.0391C129.972 20.0391 129.487 20.1771 129.19 20.4531C128.894 20.724 128.73 21.1849 128.698 21.8359H128.605C128.381 21.112 128.034 20.3047 127.565 19.4141L127.519 19.3359H136.925ZM137.417 19.8281C137.058 20.2865 136.68 21.0469 136.284 22.1094L136.253 22.1875L136.081 22.0391L136.105 21.9688C136.49 20.8906 136.862 20.1406 137.222 19.7188L137.261 19.6719L137.417 19.8281ZM135.331 21.0469C134.93 20.7865 134.461 20.6562 133.925 20.6562C133.805 20.6562 133.68 20.6641 133.55 20.6797L133.581 28.5312L134.823 30H130.831L130.651 29.7891H134.394L133.347 28.5938V20.4531L133.769 20.4453C134.274 20.4453 134.631 20.487 134.839 20.5703C135.052 20.6484 135.217 20.8073 135.331 21.0469ZM145.878 19.3359L145.753 19.4844C145.221 20.1354 144.8 20.8828 144.487 21.7266C144.435 21.6068 144.396 21.5182 144.37 21.4609C144.083 20.8359 143.776 20.4323 143.448 20.25C143.12 20.0677 142.531 19.9766 141.682 19.9766C141.292 19.9766 140.823 19.9896 140.276 20.0156V23.6094H140.776V20.4297C141.172 20.3932 141.55 20.375 141.909 20.375C142.57 20.375 143.057 20.4453 143.37 20.5859C143.682 20.7266 143.961 21 144.206 21.4062C144.133 21.3542 144.081 21.3151 144.05 21.2891C143.628 20.9557 143.323 20.7578 143.135 20.6953C142.948 20.6328 142.578 20.6016 142.026 20.6016C141.859 20.6016 141.563 20.612 141.135 20.6328L140.971 20.6406V23.6094H142.409L143.417 22.2266V25.5938L142.409 24.2891H140.276V28.6719H140.776V24.6562H142.471L142.675 24.8594H140.971V28.6719C142.034 28.6719 142.789 28.5964 143.237 28.4453C143.685 28.2943 144.036 27.9974 144.292 27.5547L144.706 26.8438C144.721 26.8125 144.753 26.7552 144.8 26.6719C144.935 27.2448 145.102 27.7031 145.3 28.0469C145.503 28.3906 145.836 28.7917 146.3 29.25H137.542L138.729 28.3438V24.8594C138.292 24.9115 137.896 25.0469 137.542 25.2656L137.432 25.1016C137.75 24.8724 138.182 24.724 138.729 24.6562V24.2891C138.641 24.2786 138.578 24.2734 138.542 24.2734C138.01 24.2734 137.526 24.4688 137.089 24.8594C137.328 24.026 137.875 23.6094 138.729 23.6094V20.2734L137.542 19.3359H145.878ZM146.253 19.8828L146.198 19.9531C145.563 20.8073 145.138 21.5234 144.925 22.1016L144.792 21.9375C145.141 21.1302 145.591 20.3906 146.143 19.7188L146.253 19.8828ZM143.956 22.4844V25.9375L143.76 25.8359V22.3828L143.956 22.4844ZM147.19 29.2969L146.784 30H138.253L138.128 29.7891H146.682L146.948 29.2969C146.198 28.6042 145.669 27.8646 145.362 27.0781L145.612 27.1719C145.898 27.8385 146.383 28.5052 147.065 29.1719L147.19 29.2969ZM156.205 19.3359C155.612 19.6432 155.229 19.9245 155.057 20.1797C154.797 20.5755 154.666 21.1719 154.666 21.9688V22.4766V29.3594H153.346L149.659 22.2031V26.4453L149.651 26.7969L149.744 27.9219C149.849 28.4427 150.086 28.8281 150.455 29.0781L150.518 29.1328C149.799 28.8932 149.44 28.125 149.44 26.8281L149.448 26.0938V21.8203L149.026 21V25.5C149.026 26.9271 149.119 27.862 149.307 28.3047C149.494 28.7474 149.935 29.0703 150.627 29.2734L151.307 30H147.073L146.948 29.7891H150.862L150.455 29.3594H146.815C147.45 29.1302 147.872 28.8229 148.08 28.4375C148.289 28.0521 148.393 27.3906 148.393 26.4531V20.2031L147.354 19.3359H151.307L150.198 20.0781L153.979 27.4531V26.5156L150.737 20.2031L151.83 19.4609L151.979 19.6094L151.01 20.2656L153.979 26.0938V22.4453V22.0312C153.979 21.125 153.903 20.5208 153.752 20.2188C153.606 19.9115 153.242 19.6172 152.659 19.3359H156.205ZM156.479 19.9141L156.338 20.1484C155.937 20.2422 155.664 20.4167 155.518 20.6719C155.377 20.9219 155.307 21.3464 155.307 21.9453V30H153.627L153.526 29.7891H155.096V22.0234C155.096 21.2891 155.19 20.7786 155.377 20.4922C155.57 20.2005 155.937 20.0078 156.479 19.9141Z" fill="white"/>
<path d="M75.9352 16.6562L76.0092 16.7235L76.0777 16.6481L76.0011 16.581L75.9352 16.6562ZM74.2946 19.0391L74.204 18.9967L74.2038 18.9972L74.2946 19.0391ZM72.9977 22.9688L73.0941 22.9952L73.0942 22.9951L72.9977 22.9688ZM71.6462 27.8906L71.5497 27.8641L71.5427 27.8897L71.5493 27.9155L71.6462 27.8906ZM71.8024 28.5L71.7055 28.5248L71.7131 28.5543L71.7357 28.5745L71.8024 28.5ZM72.7633 29.3594V29.4594H73.0252L72.83 29.2848L72.7633 29.3594ZM69.2008 29.3594L69.1365 29.2828L68.9262 29.4594H69.2008V29.3594ZM70.2243 28.5L70.2886 28.5766L70.3378 28.5353L70.3207 28.4734L70.2243 28.5ZM68.8415 23.4922L68.9379 23.4656L68.8412 23.1153L68.745 23.4657L68.8415 23.4922ZM67.4977 28.3906L67.4013 28.3642L67.3875 28.4146L67.421 28.4547L67.4977 28.3906ZM68.8415 30V30.1H69.0552L68.9182 29.9359L68.8415 30ZM64.8493 30L64.7689 30.0595L64.7989 30.1H64.8493V30ZM64.693 29.7891V29.6891H64.4945L64.6127 29.8486L64.693 29.7891ZM68.4118 29.7891V29.8891H68.6308L68.4873 29.7236L68.4118 29.7891ZM67.2399 28.4375L67.1435 28.4109L67.1292 28.4625L67.1644 28.503L67.2399 28.4375ZM68.7165 23.0938L68.8129 23.1204L68.8202 23.0937L68.8128 23.067L68.7165 23.0938ZM68.4587 22.1641L68.555 22.1373L68.458 21.7876L68.3622 22.1377L68.4587 22.1641ZM66.8571 28.0156L66.7606 27.9892L66.7536 28.0149L66.7603 28.0406L66.8571 28.0156ZM66.9821 28.5L66.8853 28.525L66.8925 28.553L66.9136 28.5729L66.9821 28.5ZM67.8962 29.3594V29.4594H68.1485L67.9647 29.2865L67.8962 29.3594ZM64.3258 29.3594L64.263 29.2816L64.0432 29.4594H64.3258V29.3594ZM65.3883 28.5L65.4512 28.5778L65.5023 28.5365L65.4847 28.4732L65.3883 28.5ZM63.1149 20.3203L63.2113 20.2935L63.203 20.2637L63.1792 20.2437L63.1149 20.3203ZM61.943 19.3359V19.2359H61.6685L61.8787 19.4125L61.943 19.3359ZM65.7633 19.3359L65.831 19.4095L66.0198 19.2359H65.7633V19.3359ZM64.693 20.3203L64.6253 20.2467L64.5803 20.2881L64.5967 20.3471L64.693 20.3203ZM66.4821 26.7578L66.3857 26.7846L66.4802 27.1244L66.5782 26.7856L66.4821 26.7578ZM66.7555 25.8125L66.8516 25.8403L66.8595 25.8129L66.8518 25.7855L66.7555 25.8125ZM65.2477 20.4375L65.1812 20.3628L65.1346 20.4043L65.1514 20.4645L65.2477 20.4375ZM65.9587 19.8047L66.0158 19.7226L65.9511 19.6776L65.8922 19.73L65.9587 19.8047ZM66.1383 19.9297L66.2049 20.0043L66.2995 19.92L66.1955 19.8476L66.1383 19.9297ZM65.4899 20.5078L65.4234 20.4332L65.3769 20.4746L65.3936 20.5346L65.4899 20.5078ZM66.8571 25.4219L66.7608 25.4487L66.8577 25.7972L66.9535 25.4484L66.8571 25.4219ZM68.529 19.3359V19.2359H68.4527L68.4325 19.3094L68.529 19.3359ZM69.2633 19.3359L69.3597 19.3093L69.3395 19.2359H69.2633V19.3359ZM71.2946 26.6953L71.1982 26.7219L71.2934 27.0667L71.3908 26.7226L71.2946 26.6953ZM71.5446 25.8125L71.6408 25.8397L71.6484 25.8128L71.641 25.7858L71.5446 25.8125ZM69.7477 19.3359V19.2359H69.6162L69.6514 19.3627L69.7477 19.3359ZM69.9665 19.3359L70.0629 19.3093L70.0426 19.2359H69.9665V19.3359ZM71.6462 25.4219L71.5498 25.4485L71.6458 25.7964L71.7425 25.4487L71.6462 25.4219ZM72.3805 22.7812L72.4769 22.808L72.4769 22.8079L72.3805 22.7812ZM72.2868 18.2344L72.2566 18.139L72.0471 18.2053L72.2347 18.3197L72.2868 18.2344ZM75.8102 16.5469L75.8761 16.4716L75.8142 16.4174L75.7491 16.4677L75.8102 16.5469ZM76.404 17.25L76.478 17.3173L76.5524 17.2354L76.4634 17.1696L76.404 17.25ZM74.8571 19.5781L74.7666 19.5356L74.7664 19.536L74.8571 19.5781ZM73.6227 23.2031L73.7192 23.2296L73.7192 23.2294L73.6227 23.2031ZM72.2399 28.25L72.1435 28.2236L72.1294 28.2748L72.164 28.3151L72.2399 28.25ZM73.7399 30V30.1H73.9573L73.8158 29.9349L73.7399 30ZM69.7321 30L69.656 30.0648L69.6859 30.1H69.7321V30ZM69.5524 29.7891V29.6891H69.3359L69.4763 29.8539L69.5524 29.7891ZM73.2633 29.7891V29.8891H73.4823L73.3389 29.7236L73.2633 29.7891ZM71.9977 28.3281L71.9013 28.3016L71.8871 28.3532L71.9221 28.3936L71.9977 28.3281ZM73.4352 23.0938L73.3388 23.0672L73.3388 23.0673L73.4352 23.0938ZM74.6618 19.5156L74.7523 19.5581L74.7524 19.5579L74.6618 19.5156ZM76.2243 17.1172L76.2837 17.0368L76.2089 16.9814L76.1483 17.0522L76.2243 17.1172ZM75.8612 16.589C75.132 17.3917 74.5789 18.1942 74.204 18.9967L74.3852 19.0814C74.7499 18.3006 75.2905 17.5146 76.0092 16.7235L75.8612 16.589ZM74.2038 18.9972C73.8355 19.7969 73.4014 21.1136 72.9013 22.9424L73.0942 22.9951C73.594 21.1676 74.0245 19.8646 74.3854 19.0809L74.2038 18.9972ZM72.9013 22.9423L71.5497 27.8641L71.7426 27.9171L73.0941 22.9952L72.9013 22.9423ZM71.5493 27.9155L71.7055 28.5248L71.8993 28.4752L71.743 27.8658L71.5493 27.9155ZM71.7357 28.5745L72.6967 29.4339L72.83 29.2848L71.8691 28.4255L71.7357 28.5745ZM72.7633 29.2594H69.2008V29.4594H72.7633V29.2594ZM69.2651 29.436L70.2886 28.5766L70.16 28.4234L69.1365 29.2828L69.2651 29.436ZM70.3207 28.4734L68.9379 23.4656L68.7451 23.5188L70.1279 28.5266L70.3207 28.4734ZM68.745 23.4657L67.4013 28.3642L67.5942 28.4171L68.9379 23.5186L68.745 23.4657ZM67.421 28.4547L68.7647 30.0641L68.9182 29.9359L67.5745 28.3265L67.421 28.4547ZM68.8415 29.9H64.8493V30.1H68.8415V29.9ZM64.9296 29.9405L64.7734 29.7295L64.6127 29.8486L64.7689 30.0595L64.9296 29.9405ZM64.693 29.8891H68.4118V29.6891H64.693V29.8891ZM68.4873 29.7236L67.3155 28.372L67.1644 28.503L68.3362 29.8546L68.4873 29.7236ZM67.3363 28.4641L68.8129 23.1204L68.6201 23.0671L67.1435 28.4109L67.3363 28.4641ZM68.8128 23.067L68.555 22.1373L68.3623 22.1908L68.6201 23.1205L68.8128 23.067ZM68.3622 22.1377L66.7606 27.9892L66.9535 28.042L68.5551 22.1905L68.3622 22.1377ZM66.7603 28.0406L66.8853 28.525L67.0789 28.475L66.9539 27.9906L66.7603 28.0406ZM66.9136 28.5729L67.8277 29.4322L67.9647 29.2865L67.0506 28.4271L66.9136 28.5729ZM67.8962 29.2594H64.3258V29.4594H67.8962V29.2594ZM64.3887 29.4371L65.4512 28.5778L65.3255 28.4222L64.263 29.2816L64.3887 29.4371ZM65.4847 28.4732L63.2113 20.2935L63.0186 20.3471L65.292 28.5268L65.4847 28.4732ZM63.1792 20.2437L62.0074 19.2594L61.8787 19.4125L63.0506 20.3969L63.1792 20.2437ZM61.943 19.4359H65.7633V19.2359H61.943V19.4359ZM65.6956 19.2623L64.6253 20.2467L64.7607 20.3939L65.831 19.4095L65.6956 19.2623ZM64.5967 20.3471L66.3857 26.7846L66.5784 26.731L64.7894 20.2935L64.5967 20.3471ZM66.5782 26.7856L66.8516 25.8403L66.6595 25.7847L66.386 26.73L66.5782 26.7856ZM66.8518 25.7855L65.344 20.4105L65.1514 20.4645L66.6592 25.8395L66.8518 25.7855ZM65.3142 20.5122L66.0251 19.8794L65.8922 19.73L65.1812 20.3628L65.3142 20.5122ZM65.9015 19.8868L66.0812 20.0118L66.1955 19.8476L66.0158 19.7226L65.9015 19.8868ZM66.0718 19.855L65.4234 20.4332L65.5565 20.5825L66.2049 20.0043L66.0718 19.855ZM65.3936 20.5346L66.7608 25.4487L66.9534 25.3951L65.5862 20.481L65.3936 20.5346ZM66.9535 25.4484L68.6254 19.3624L68.4325 19.3094L66.7607 25.3954L66.9535 25.4484ZM68.529 19.4359H69.2633V19.2359H68.529V19.4359ZM69.1669 19.3625L71.1982 26.7219L71.391 26.6687L69.3597 19.3093L69.1669 19.3625ZM71.3908 26.7226L71.6408 25.8397L71.4484 25.7853L71.1984 26.6681L71.3908 26.7226ZM71.641 25.7858L69.8441 19.3092L69.6514 19.3627L71.4482 25.8392L71.641 25.7858ZM69.7477 19.4359H69.9665V19.2359H69.7477V19.4359ZM69.8701 19.3625L71.5498 25.4485L71.7426 25.3953L70.0629 19.3093L69.8701 19.3625ZM71.7425 25.4487L72.4769 22.808L72.2842 22.7545L71.5498 25.3951L71.7425 25.4487ZM72.4769 22.8079C72.7064 21.9788 72.8788 21.2931 72.994 20.7513C73.1087 20.2115 73.168 19.8082 73.168 19.5469H72.968C72.968 19.7856 72.9128 20.1713 72.7983 20.7097C72.6843 21.246 72.513 21.9275 72.2842 22.7546L72.4769 22.8079ZM73.168 19.5469C73.168 18.9509 72.8861 18.4828 72.3389 18.149L72.2347 18.3197C72.7292 18.6214 72.968 19.0282 72.968 19.5469H73.168ZM72.3169 18.3297C72.9315 18.1354 73.5895 17.8705 74.2908 17.5355L74.2046 17.3551C73.5101 17.6868 72.8608 17.948 72.2566 18.139L72.3169 18.3297ZM74.2908 17.5355C74.991 17.2011 75.5193 16.8981 75.8714 16.626L75.7491 16.4677C75.4137 16.7269 74.9003 17.0228 74.2046 17.3551L74.2908 17.5355ZM75.7444 16.6221L75.8694 16.7315L76.0011 16.581L75.8761 16.4716L75.7444 16.6221ZM76.33 17.1827C75.6981 17.8778 75.177 18.6622 74.7666 19.5356L74.9476 19.6207C75.3497 18.7648 75.8599 17.9972 76.478 17.3173L76.33 17.1827ZM74.7664 19.536C74.3619 20.408 73.9487 21.6225 73.5262 23.1769L73.7192 23.2294C74.1405 21.6796 74.5502 20.4774 74.9478 19.6202L74.7664 19.536ZM73.5263 23.1767L72.1435 28.2236L72.3364 28.2764L73.7192 23.2296L73.5263 23.1767ZM72.164 28.3151L73.664 30.0651L73.8158 29.9349L72.3158 28.1849L72.164 28.3151ZM73.7399 29.9H69.7321V30.1H73.7399V29.9ZM69.8082 29.9352L69.6285 29.7242L69.4763 29.8539L69.656 30.0648L69.8082 29.9352ZM69.5524 29.8891H73.2633V29.6891H69.5524V29.8891ZM73.3389 29.7236L72.0733 28.2626L71.9221 28.3936L73.1878 29.8545L73.3389 29.7236ZM72.0941 28.3546L73.5316 23.1202L73.3388 23.0673L71.9013 28.3016L72.0941 28.3546ZM73.5316 23.1203C73.9582 21.5703 74.3652 20.3838 74.7523 19.5581L74.5712 19.4732C74.1771 20.3141 73.7665 21.5131 73.3388 23.0672L73.5316 23.1203ZM74.7524 19.5579C75.1389 18.7282 75.6546 17.9363 76.3002 17.1822L76.1483 17.0522C75.4919 17.8189 74.9659 18.626 74.5711 19.4734L74.7524 19.5579ZM76.1648 17.1976L76.3445 17.3304L76.4634 17.1696L76.2837 17.0368L76.1648 17.1976ZM83.7786 19.3359L83.8551 19.4004L83.9936 19.2359H83.7786V19.3359ZM83.6536 19.4844L83.5771 19.42L83.5761 19.4212L83.6536 19.4844ZM82.388 21.7266L82.2963 21.7664L82.3954 21.9944L82.4818 21.7613L82.388 21.7266ZM82.2708 21.4609L82.3618 21.4196L82.3617 21.4193L82.2708 21.4609ZM78.177 20.0156L78.1723 19.9157L78.077 19.9203V20.0156H78.177ZM78.177 23.6094H78.077V23.7094H78.177V23.6094ZM78.677 23.6094V23.7094H78.777V23.6094H78.677ZM78.677 20.4297L78.6679 20.3301L78.577 20.3385V20.4297H78.677ZM82.1067 21.4062L82.0486 21.4876L82.1924 21.3546L82.1067 21.4062ZM81.9505 21.2891L82.0145 21.2122L82.0125 21.2106L81.9505 21.2891ZM79.0364 20.6328L79.0412 20.7327L79.0413 20.7327L79.0364 20.6328ZM78.8724 20.6406L78.8676 20.5407L78.7724 20.5453V20.6406H78.8724ZM78.8724 23.6094H78.7724V23.7094H78.8724V23.6094ZM80.3099 23.6094V23.7094H80.3607L80.3907 23.6683L80.3099 23.6094ZM81.3177 22.2266H81.4177V21.9196L81.2369 22.1677L81.3177 22.2266ZM81.3177 25.5938L81.2385 25.6549L81.4177 25.8868V25.5938H81.3177ZM80.3099 24.2891L80.389 24.2279L80.359 24.1891H80.3099V24.2891ZM78.177 24.2891V24.1891H78.077V24.2891H78.177ZM78.177 28.6719H78.077V28.7719H78.177V28.6719ZM78.677 28.6719V28.7719H78.777V28.6719H78.677ZM78.677 24.6562V24.5562H78.577V24.6562H78.677ZM80.3724 24.6562L80.4431 24.5855L80.4138 24.5562H80.3724V24.6562ZM80.5755 24.8594V24.9594H80.8169L80.6462 24.7887L80.5755 24.8594ZM78.8724 24.8594V24.7594H78.7724V24.8594H78.8724ZM78.8724 28.6719H78.7724V28.7719H78.8724V28.6719ZM82.1927 27.5547L82.1063 27.5044L82.106 27.5047L82.1927 27.5547ZM82.6067 26.8438L82.6933 26.8942L82.6962 26.8885L82.6067 26.8438ZM82.7005 26.6719L82.7978 26.6489L82.7389 26.3996L82.6133 26.6228L82.7005 26.6719ZM83.2005 28.0469L83.1138 28.0968L83.1144 28.0977L83.2005 28.0469ZM84.2005 29.25V29.35H84.4438L84.2708 29.1789L84.2005 29.25ZM75.4427 29.25L75.382 29.1705L75.1468 29.35H75.4427V29.25ZM76.6302 28.3438L76.6908 28.4232L76.7302 28.3932V28.3438H76.6302ZM76.6302 24.8594H76.7302V24.7468L76.6183 24.7601L76.6302 24.8594ZM75.4427 25.2656L75.3595 25.3211L75.413 25.4015L75.4952 25.3507L75.4427 25.2656ZM75.3333 25.1016L75.2748 25.0205L75.1966 25.0768L75.2501 25.157L75.3333 25.1016ZM76.6302 24.6562L76.6425 24.7555L76.7302 24.7446V24.6562H76.6302ZM76.6302 24.2891H76.7302V24.2001L76.6419 24.1897L76.6302 24.2891ZM74.9895 24.8594L74.8934 24.8317L74.7977 25.1647L75.0561 24.934L74.9895 24.8594ZM76.6302 23.6094V23.7094H76.7302V23.6094H76.6302ZM76.6302 20.2734H76.7302V20.225L76.6921 20.1949L76.6302 20.2734ZM75.4427 19.3359V19.2359H75.1546L75.3807 19.4144L75.4427 19.3359ZM84.1536 19.8828L84.2325 19.9442L84.2768 19.8873L84.2368 19.8273L84.1536 19.8828ZM84.0989 19.9531L84.02 19.8917L84.0187 19.8934L84.0989 19.9531ZM82.8255 22.1016L82.7478 22.1645L82.8584 22.3011L82.9193 22.1362L82.8255 22.1016ZM82.6927 21.9375L82.6009 21.8978L82.5769 21.9534L82.6149 22.0004L82.6927 21.9375ZM84.0442 19.7188L84.1274 19.6633L84.0526 19.551L83.967 19.6553L84.0442 19.7188ZM81.8567 22.4844H81.9567V22.4237L81.9029 22.3957L81.8567 22.4844ZM81.8567 25.9375L81.8106 26.0262L81.9567 26.1022V25.9375H81.8567ZM81.6614 25.8359H81.5614V25.8966L81.6153 25.9247L81.6614 25.8359ZM81.6614 22.3828L81.7076 22.2941L81.5614 22.2181V22.3828H81.6614ZM85.0911 29.2969L85.1777 29.3469L85.2161 29.2804L85.1618 29.2262L85.0911 29.2969ZM84.6849 30V30.1H84.7426L84.7714 30.05L84.6849 30ZM76.1536 30L76.0676 30.051L76.0966 30.1H76.1536V30ZM76.0286 29.7891V29.6891H75.8531L75.9426 29.84L76.0286 29.7891ZM84.5833 29.7891V29.8891H84.643L84.6713 29.8366L84.5833 29.7891ZM84.8489 29.2969L84.9369 29.3444L84.9738 29.2761L84.9168 29.2234L84.8489 29.2969ZM83.263 27.0781L83.2981 26.9845L83.0883 26.9058L83.1698 27.1145L83.263 27.0781ZM83.513 27.1719L83.6049 27.1324L83.588 27.0932L83.5481 27.0782L83.513 27.1719ZM84.9661 29.1719L85.0368 29.1012L85.036 29.1004L84.9661 29.1719ZM83.7021 19.2715L83.5771 19.42L83.7301 19.5488L83.8551 19.4004L83.7021 19.2715ZM83.5761 19.4212C83.0374 20.0813 82.6103 20.8385 82.2942 21.6918L82.4818 21.7613C82.7907 20.9271 83.2073 20.1895 83.7311 19.5476L83.5761 19.4212ZM82.4797 21.6867C82.4276 21.5668 82.3882 21.4776 82.3618 21.4196L82.1798 21.5023C82.2054 21.5588 82.2442 21.6467 82.2963 21.7664L82.4797 21.6867ZM82.3617 21.4193C82.0728 20.7889 81.7543 20.3608 81.3975 20.1626L81.3004 20.3374C81.5998 20.5038 81.8959 20.883 82.1799 21.5026L82.3617 21.4193ZM81.3975 20.1626C81.0448 19.9667 80.4329 19.8766 79.5833 19.8766V20.0766C80.4316 20.0766 80.9968 20.1688 81.3004 20.3374L81.3975 20.1626ZM79.5833 19.8766C79.1906 19.8766 78.7202 19.8896 78.1723 19.9157L78.1818 20.1155C78.7277 20.0895 79.1947 20.0766 79.5833 20.0766V19.8766ZM78.077 20.0156V23.6094H78.277V20.0156H78.077ZM78.177 23.7094H78.677V23.5094H78.177V23.7094ZM78.777 23.6094V20.4297H78.577V23.6094H78.777ZM78.6862 20.5293C79.0793 20.4931 79.4538 20.475 79.8099 20.475V20.275C79.4471 20.275 79.0664 20.2934 78.6679 20.3301L78.6862 20.5293ZM79.8099 20.475C80.4679 20.475 80.9373 20.5455 81.2298 20.6771L81.3118 20.4947C80.9793 20.3451 80.4747 20.275 79.8099 20.275V20.475ZM81.2298 20.6771C81.5178 20.8068 81.7829 21.0625 82.0211 21.4579L82.1924 21.3546C81.941 20.9375 81.6488 20.6464 81.3118 20.4947L81.2298 20.6771ZM82.1649 21.3249C82.0922 21.2729 82.0427 21.2357 82.0145 21.2122L81.8865 21.3659C81.9208 21.3945 81.9755 21.4354 82.0486 21.4876L82.1649 21.3249ZM82.0125 21.2106C81.5921 20.8784 81.2745 20.6693 81.068 20.6004L81.0048 20.7902C81.1733 20.8464 81.4651 21.033 81.8885 21.3675L82.0125 21.2106ZM81.068 20.6004C80.8629 20.532 80.4771 20.5016 79.927 20.5016V20.7016C80.4812 20.7016 80.835 20.7336 81.0048 20.7902L81.068 20.6004ZM79.927 20.5016C79.7576 20.5016 79.4585 20.5121 79.0315 20.5329L79.0413 20.7327C79.4685 20.7119 79.7631 20.7016 79.927 20.7016V20.5016ZM79.0317 20.5329L78.8676 20.5407L78.8771 20.7405L79.0412 20.7327L79.0317 20.5329ZM78.7724 20.6406V23.6094H78.9724V20.6406H78.7724ZM78.8724 23.7094H80.3099V23.5094H78.8724V23.7094ZM80.3907 23.6683L81.3985 22.2855L81.2369 22.1677L80.229 23.5505L80.3907 23.6683ZM81.2177 22.2266V25.5938H81.4177V22.2266H81.2177ZM81.3968 25.5326L80.389 24.2279L80.2307 24.3502L81.2385 25.6549L81.3968 25.5326ZM80.3099 24.1891H78.177V24.3891H80.3099V24.1891ZM78.077 24.2891V28.6719H78.277V24.2891H78.077ZM78.177 28.7719H78.677V28.5719H78.177V28.7719ZM78.777 28.6719V24.6562H78.577V28.6719H78.777ZM78.677 24.7563H80.3724V24.5562H78.677V24.7563ZM80.3016 24.727L80.5048 24.9301L80.6462 24.7887L80.4431 24.5855L80.3016 24.727ZM80.5755 24.7594H78.8724V24.9594H80.5755V24.7594ZM78.7724 24.8594V28.6719H78.9724V24.8594H78.7724ZM78.8724 28.7719C79.9356 28.7719 80.7052 28.6968 81.1699 28.5401L81.106 28.3506C80.6749 28.4959 79.9341 28.5719 78.8724 28.5719V28.7719ZM81.1699 28.5401C81.6429 28.3806 82.013 28.0666 82.2793 27.6046L82.106 27.5047C81.8619 27.9282 81.5289 28.208 81.106 28.3506L81.1699 28.5401ZM82.2791 27.605L82.6931 26.8941L82.5203 26.7934L82.1063 27.5044L82.2791 27.605ZM82.6962 26.8885C82.7106 26.8597 82.7406 26.8044 82.7876 26.7209L82.6133 26.6228C82.5666 26.706 82.5342 26.7653 82.5173 26.799L82.6962 26.8885ZM82.6032 26.6949C82.7398 27.2731 82.9093 27.7416 83.1138 28.0968L83.2871 27.997C83.0958 27.6646 82.932 27.2165 82.7978 26.6489L82.6032 26.6949ZM83.1144 28.0977C83.3238 28.4521 83.6639 28.86 84.1302 29.3211L84.2708 29.1789C83.81 28.7233 83.4835 28.3292 83.2866 27.996L83.1144 28.0977ZM84.2005 29.15H75.4427V29.35H84.2005V29.15ZM75.5033 29.3295L76.6908 28.4232L76.5695 28.2643L75.382 29.1705L75.5033 29.3295ZM76.7302 28.3438V24.8594H76.5302V28.3438H76.7302ZM76.6183 24.7601C76.1673 24.8138 75.7574 24.9537 75.3901 25.1805L75.4952 25.3507C75.8363 25.14 76.2181 25.0091 76.642 24.9587L76.6183 24.7601ZM75.5259 25.2102L75.4165 25.0461L75.2501 25.157L75.3595 25.3211L75.5259 25.2102ZM75.3918 25.1827C75.6914 24.9665 76.1059 24.8219 76.6425 24.7555L76.6179 24.557C76.0607 24.626 75.6106 24.7783 75.2748 25.0205L75.3918 25.1827ZM76.7302 24.6562V24.2891H76.5302V24.6562H76.7302ZM76.6419 24.1897C76.5534 24.1793 76.4856 24.1734 76.4427 24.1734V24.3734C76.4726 24.3734 76.5299 24.378 76.6185 24.3884L76.6419 24.1897ZM76.4427 24.1734C75.8842 24.1734 75.3767 24.3796 74.9229 24.7848L75.0561 24.934C75.4774 24.5579 75.9386 24.3734 76.4427 24.3734V24.1734ZM75.0857 24.887C75.2011 24.4856 75.3877 24.1936 75.64 24.0014C75.8922 23.8093 76.2196 23.7094 76.6302 23.7094V23.5094C76.1866 23.5094 75.8135 23.6178 75.5188 23.8423C75.2242 24.0668 75.0176 24.3999 74.8934 24.8317L75.0857 24.887ZM76.7302 23.6094V20.2734H76.5302V23.6094H76.7302ZM76.6921 20.1949L75.5046 19.2574L75.3807 19.4144L76.5682 20.3519L76.6921 20.1949ZM75.4427 19.4359H83.7786V19.2359H75.4427V19.4359ZM84.0747 19.8214L84.02 19.8917L84.1779 20.0145L84.2325 19.9442L84.0747 19.8214ZM84.0187 19.8934C83.3811 20.7506 82.9501 21.4756 82.7317 22.0669L82.9193 22.1362C83.128 21.5712 83.5459 20.864 84.1792 20.0128L84.0187 19.8934ZM82.9032 22.0386L82.7704 21.8746L82.6149 22.0004L82.7478 22.1645L82.9032 22.0386ZM82.7845 21.9772C83.1298 21.1784 83.5754 20.4468 84.1215 19.7822L83.967 19.6553C83.4089 20.3344 82.9535 21.0821 82.6009 21.8978L82.7845 21.9772ZM83.961 19.7742L84.0704 19.9383L84.2368 19.8273L84.1274 19.6633L83.961 19.7742ZM81.7567 22.4844V25.9375H81.9567V22.4844H81.7567ZM81.9029 25.8488L81.7076 25.7472L81.6153 25.9247L81.8106 26.0262L81.9029 25.8488ZM81.7614 25.8359V22.3828H81.5614V25.8359H81.7614ZM81.6153 22.4715L81.8106 22.5731L81.9029 22.3957L81.7076 22.2941L81.6153 22.4715ZM85.0045 29.2468L84.5983 29.95L84.7714 30.05L85.1777 29.3469L85.0045 29.2468ZM84.6849 29.9H76.1536V30.1H84.6849V29.9ZM76.2396 29.949L76.1146 29.7381L75.9426 29.84L76.0676 30.051L76.2396 29.949ZM76.0286 29.8891H84.5833V29.6891H76.0286V29.8891ZM84.6713 29.8366L84.9369 29.3444L84.7609 29.2494L84.4953 29.7416L84.6713 29.8366ZM84.9168 29.2234C84.1756 28.5389 83.6569 27.8114 83.3561 27.0417L83.1698 27.1145C83.4837 27.9177 84.0222 28.6695 84.7811 29.3703L84.9168 29.2234ZM83.2279 27.1718L83.4779 27.2655L83.5481 27.0782L83.2981 26.9845L83.2279 27.1718ZM83.4211 27.2114C83.7141 27.8932 84.2074 28.5703 84.8962 29.2434L85.036 29.1004C84.3603 28.4401 83.8848 27.7839 83.6049 27.1324L83.4211 27.2114ZM84.8954 29.2426L85.0204 29.3676L85.1618 29.2262L85.0368 29.1012L84.8954 29.2426ZM85.1923 19.3359V19.2359H84.936L85.1246 19.4095L85.1923 19.3359ZM88.9267 19.3359L88.9964 19.4077L89.1731 19.2359H88.9267V19.3359ZM87.8251 20.4062L87.7554 20.3345L87.7251 20.364V20.4062H87.8251ZM87.8251 28.7578H87.7251V28.8578H87.8251V28.7578ZM87.8876 28.7578L87.896 28.6578H87.8876V28.7578ZM88.1689 28.7812L88.1605 28.8813H88.1689V28.7812ZM88.2392 28.7812V28.8813H88.3392V28.7812H88.2392ZM88.2392 20.4844L88.1681 20.414L88.1392 20.4432V20.4844H88.2392ZM89.0829 19.6328L89.1673 19.5791L89.1001 19.4735L89.0119 19.5624L89.0829 19.6328ZM89.1923 19.8047L89.2637 19.8747L89.3193 19.818L89.2767 19.751L89.1923 19.8047ZM88.4345 20.5781L88.3631 20.5081L88.3345 20.5373V20.5781H88.4345ZM88.4345 28.7812H88.3345V28.8728L88.4256 28.8809L88.4345 28.7812ZM90.9814 28.2656L91.0468 28.3413L91.0468 28.3412L90.9814 28.2656ZM91.8407 26.4453L91.9353 26.4128L91.7422 26.4283L91.8407 26.4453ZM93.3486 29.3594V29.4594H93.5883L93.4196 29.289L93.3486 29.3594ZM85.1923 29.3594L85.129 29.282L84.9123 29.4594H85.1923V29.3594ZM86.2704 28.4766L86.3338 28.5539L86.3704 28.5239V28.4766H86.2704ZM86.2704 20.3281H86.3704V20.2843L86.3382 20.2545L86.2704 20.3281ZM94.1142 29.2969L94.2036 29.3416L94.2322 29.2844L94.1923 29.2344L94.1142 29.2969ZM93.7626 30V30.1H93.8244L93.8521 30.0447L93.7626 30ZM85.6064 30L85.533 30.0679L85.5627 30.1H85.6064V30ZM85.4111 29.7891V29.6891H85.1822L85.3377 29.857L85.4111 29.7891ZM93.6767 29.7891V29.8891H93.7407L93.7675 29.8309L93.6767 29.7891ZM93.9032 29.2969L93.9941 29.3387L94.0202 29.282L93.9808 29.2337L93.9032 29.2969ZM92.5282 26.9453L92.4342 26.9795L92.4353 26.9823L92.5282 26.9453ZM92.497 26.8594L92.5321 26.7657L92.3288 26.6895L92.403 26.8935L92.497 26.8594ZM92.747 26.9531L92.8395 26.9151L92.8229 26.8748L92.7821 26.8595L92.747 26.9531ZM92.8017 27.0859L92.7092 27.124L92.7106 27.1272L92.8017 27.0859ZM94.0517 29.2188L93.9714 29.2785L93.9736 29.2812L94.0517 29.2188ZM85.1923 19.4359H88.9267V19.2359H85.1923V19.4359ZM88.857 19.2642L87.7554 20.3345L87.8948 20.478L88.9964 19.4077L88.857 19.2642ZM87.7251 20.4062V28.7578H87.9251V20.4062H87.7251ZM87.8251 28.8578H87.8876V28.6578H87.8251V28.8578ZM87.8793 28.8575L88.1606 28.8809L88.1772 28.6816L87.8959 28.6582L87.8793 28.8575ZM88.1689 28.8813H88.2392V28.6812H88.1689V28.8813ZM88.3392 28.7812V20.4844H88.1392V28.7812H88.3392ZM88.3102 20.5548L89.154 19.7032L89.0119 19.5624L88.1681 20.414L88.3102 20.5548ZM88.9986 19.6865L89.1079 19.8584L89.2767 19.751L89.1673 19.5791L88.9986 19.6865ZM89.1209 19.7347L88.3631 20.5081L88.5059 20.6481L89.2637 19.8747L89.1209 19.7347ZM88.3345 20.5781V28.7812H88.5345V20.5781H88.3345ZM88.4256 28.8809C88.6627 28.9019 88.8896 28.9125 89.1064 28.9125V28.7125C88.8961 28.7125 88.6751 28.7022 88.4433 28.6816L88.4256 28.8809ZM89.1064 28.9125C89.9472 28.9125 90.5997 28.7277 91.0468 28.3413L90.916 28.19C90.5193 28.5328 89.9218 28.7125 89.1064 28.7125V28.9125ZM91.0468 28.3412C91.4984 27.9502 91.7915 27.3176 91.9393 26.4623L91.7422 26.4283C91.5984 27.2605 91.3185 27.8414 90.9159 28.19L91.0468 28.3412ZM91.7462 26.4779C92.2366 27.9021 92.7451 28.8919 93.2775 29.4297L93.4196 29.289C92.9208 28.7852 92.4241 27.8323 91.9353 26.4128L91.7462 26.4779ZM93.3486 29.2594H85.1923V29.4594H93.3486V29.2594ZM85.2557 29.4367L86.3338 28.5539L86.2071 28.3992L85.129 29.282L85.2557 29.4367ZM86.3704 28.4766V20.3281H86.1704V28.4766H86.3704ZM86.3382 20.2545L85.26 19.2624L85.1246 19.4095L86.2027 20.4017L86.3382 20.2545ZM94.0247 29.2522L93.6732 29.9553L93.8521 30.0447L94.2036 29.3416L94.0247 29.2522ZM93.7626 29.9H85.6064V30.1H93.7626V29.9ZM85.6797 29.9321L85.4844 29.7211L85.3377 29.857L85.533 30.0679L85.6797 29.9321ZM85.4111 29.8891H93.6767V29.6891H85.4111V29.8891ZM93.7675 29.8309L93.9941 29.3387L93.8124 29.2551L93.5858 29.7472L93.7675 29.8309ZM93.9808 29.2337C93.4145 28.5387 92.9613 27.7637 92.6212 26.9084L92.4353 26.9823C92.7827 27.8561 93.2462 28.6488 93.8257 29.36L93.9808 29.2337ZM92.6222 26.9111L92.591 26.8252L92.403 26.8935L92.4343 26.9795L92.6222 26.9111ZM92.4619 26.953L92.7119 27.0468L92.7821 26.8595L92.5321 26.7657L92.4619 26.953ZM92.6545 26.9912L92.7092 27.124L92.8942 27.0479L92.8395 26.9151L92.6545 26.9912ZM92.7106 27.1272C93.0624 27.9043 93.4826 28.6214 93.9715 29.2784L94.1319 29.1591C93.652 28.514 93.2389 27.8093 92.8928 27.0447L92.7106 27.1272ZM93.9736 29.2812L94.0361 29.3593L94.1923 29.2344L94.1298 29.1563L93.9736 29.2812ZM93.8873 19.3359V19.2359H93.6309L93.8195 19.4095L93.8873 19.3359ZM97.6216 19.3359L97.6913 19.4077L97.8681 19.2359H97.6216V19.3359ZM96.5201 20.4062L96.4504 20.3345L96.4201 20.364V20.4062H96.5201ZM96.5201 28.7578H96.4201V28.8578H96.5201V28.7578ZM96.5826 28.7578L96.5909 28.6578H96.5826V28.7578ZM96.8638 28.7812L96.8555 28.8813H96.8638V28.7812ZM96.9341 28.7812V28.8813H97.0341V28.7812H96.9341ZM96.9341 20.4844L96.8631 20.414L96.8341 20.4432V20.4844H96.9341ZM97.7779 19.6328L97.8623 19.5791L97.795 19.4735L97.7068 19.5624L97.7779 19.6328ZM97.8873 19.8047L97.9587 19.8747L98.0142 19.818L97.9716 19.751L97.8873 19.8047ZM97.1294 20.5781L97.058 20.5081L97.0294 20.5373V20.5781H97.1294ZM97.1294 28.7812H97.0294V28.8728L97.1206 28.8809L97.1294 28.7812ZM99.6763 28.2656L99.7417 28.3413L99.7418 28.3412L99.6763 28.2656ZM100.536 26.4453L100.63 26.4128L100.437 26.4283L100.536 26.4453ZM102.044 29.3594V29.4594H102.283L102.115 29.289L102.044 29.3594ZM93.8873 29.3594L93.8239 29.282L93.6073 29.4594H93.8873V29.3594ZM94.9654 28.4766L95.0287 28.5539L95.0654 28.5239V28.4766H94.9654ZM94.9654 20.3281H95.0654V20.2843L95.0331 20.2545L94.9654 20.3281ZM102.809 29.2969L102.899 29.3416L102.927 29.2844L102.887 29.2344L102.809 29.2969ZM102.458 30V30.1H102.519L102.547 30.0447L102.458 30ZM94.3013 30L94.2279 30.0679L94.2576 30.1H94.3013V30ZM94.106 29.7891V29.6891H93.8771L94.0326 29.857L94.106 29.7891ZM102.372 29.7891V29.8891H102.436L102.462 29.8309L102.372 29.7891ZM102.598 29.2969L102.689 29.3387L102.715 29.282L102.676 29.2337L102.598 29.2969ZM101.223 26.9453L101.129 26.9795L101.13 26.9823L101.223 26.9453ZM101.192 26.8594L101.227 26.7657L101.024 26.6895L101.098 26.8935L101.192 26.8594ZM101.442 26.9531L101.534 26.9151L101.518 26.8748L101.477 26.8595L101.442 26.9531ZM101.497 27.0859L101.404 27.124L101.406 27.1272L101.497 27.0859ZM102.747 29.2188L102.666 29.2785L102.669 29.2812L102.747 29.2188ZM93.8873 19.4359H97.6216V19.2359H93.8873V19.4359ZM97.5519 19.2642L96.4504 20.3345L96.5898 20.478L97.6913 19.4077L97.5519 19.2642ZM96.4201 20.4062V28.7578H96.6201V20.4062H96.4201ZM96.5201 28.8578H96.5826V28.6578H96.5201V28.8578ZM96.5743 28.8575L96.8555 28.8809L96.8721 28.6816L96.5909 28.6582L96.5743 28.8575ZM96.8638 28.8813H96.9341V28.6812H96.8638V28.8813ZM97.0341 28.7812V20.4844H96.8341V28.7812H97.0341ZM97.0052 20.5548L97.8489 19.7032L97.7068 19.5624L96.8631 20.414L97.0052 20.5548ZM97.6935 19.6865L97.8029 19.8584L97.9716 19.751L97.8623 19.5791L97.6935 19.6865ZM97.8158 19.7347L97.058 20.5081L97.2009 20.6481L97.9587 19.8747L97.8158 19.7347ZM97.0294 20.5781V28.7812H97.2294V20.5781H97.0294ZM97.1206 28.8809C97.3576 28.9019 97.5845 28.9125 97.8013 28.9125V28.7125C97.591 28.7125 97.37 28.7022 97.1383 28.6816L97.1206 28.8809ZM97.8013 28.9125C98.6421 28.9125 99.2946 28.7277 99.7417 28.3413L99.6109 28.19C99.2143 28.5328 98.6168 28.7125 97.8013 28.7125V28.9125ZM99.7418 28.3412C100.193 27.9502 100.486 27.3176 100.634 26.4623L100.437 26.4283C100.293 27.2605 100.013 27.8414 99.6109 28.19L99.7418 28.3412ZM100.441 26.4779C100.932 27.9021 101.44 28.8919 101.972 29.4297L102.115 29.289C101.616 28.7852 101.119 27.8323 100.63 26.4128L100.441 26.4779ZM102.044 29.2594H93.8873V29.4594H102.044V29.2594ZM93.9506 29.4367L95.0287 28.5539L94.902 28.3992L93.8239 29.282L93.9506 29.4367ZM95.0654 28.4766V20.3281H94.8654V28.4766H95.0654ZM95.0331 20.2545L93.955 19.2624L93.8195 19.4095L94.8977 20.4017L95.0331 20.2545ZM102.72 29.2522L102.368 29.9553L102.547 30.0447L102.899 29.3416L102.72 29.2522ZM102.458 29.9H94.3013V30.1H102.458V29.9ZM94.3747 29.9321L94.1794 29.7211L94.0326 29.857L94.2279 30.0679L94.3747 29.9321ZM94.106 29.8891H102.372V29.6891H94.106V29.8891ZM102.462 29.8309L102.689 29.3387L102.507 29.2551L102.281 29.7472L102.462 29.8309ZM102.676 29.2337C102.109 28.5387 101.656 27.7637 101.316 26.9084L101.13 26.9823C101.478 27.8561 101.941 28.6488 102.521 29.36L102.676 29.2337ZM101.317 26.9111L101.286 26.8252L101.098 26.8935L101.129 26.9795L101.317 26.9111ZM101.157 26.953L101.407 27.0468L101.477 26.8595L101.227 26.7657L101.157 26.953ZM101.349 26.9912L101.404 27.124L101.589 27.0479L101.534 26.9151L101.349 26.9912ZM101.406 27.1272C101.757 27.9043 102.178 28.6214 102.666 29.2784L102.827 29.1591C102.347 28.514 101.934 27.8093 101.588 27.0447L101.406 27.1272ZM102.669 29.2812L102.731 29.3593L102.887 29.2344L102.825 29.1563L102.669 29.2812ZM102.582 19.3359V19.2359H102.321L102.515 19.4103L102.582 19.3359ZM106.285 19.3359L106.357 19.4061L106.524 19.2359H106.285V19.3359ZM105.238 20.3984L105.167 20.3283L105.138 20.3574V20.3984H105.238ZM105.238 28.5312H105.138V28.5778L105.174 28.6078L105.238 28.5312ZM106.223 29.3594V29.4594H106.497L106.287 29.2829L106.223 29.3594ZM102.582 29.3594L102.518 29.2823L102.304 29.4594H102.582V29.3594ZM103.668 28.4609L103.732 28.538L103.768 28.508V28.4609H103.668ZM103.668 20.3125H103.768V20.2679L103.735 20.2381L103.668 20.3125ZM106.637 19.7812L106.707 19.8523L106.773 19.7871L106.713 19.7165L106.637 19.7812ZM105.84 20.5703L105.77 20.4993L105.74 20.5286V20.5703H105.84ZM105.84 28.5312H105.74V28.5694L105.765 28.5979L105.84 28.5312ZM107.153 30V30.1H107.376L107.227 29.9334L107.153 30ZM103.09 30L103.017 30.0679L103.046 30.1H103.09V30ZM102.895 29.7891V29.6891H102.666L102.821 29.857L102.895 29.7891ZM106.692 29.7891V29.8891H106.917L106.766 29.7219L106.692 29.7891ZM105.621 28.6094H105.521V28.648L105.547 28.6766L105.621 28.6094ZM105.621 20.5L105.551 20.429L105.521 20.4583V20.5H105.621ZM106.504 19.625L106.58 19.5602L106.51 19.478L106.434 19.554L106.504 19.625ZM102.582 19.4359H106.285V19.2359H102.582V19.4359ZM106.214 19.2658L105.167 20.3283L105.31 20.4686L106.357 19.4061L106.214 19.2658ZM105.138 20.3984V28.5312H105.338V20.3984H105.138ZM105.174 28.6078L106.158 29.4359L106.287 29.2829L105.303 28.4547L105.174 28.6078ZM106.223 29.2594H102.582V29.4594H106.223V29.2594ZM102.646 29.4364L103.732 28.538L103.604 28.3839L102.518 29.2823L102.646 29.4364ZM103.768 28.4609V20.3125H103.568V28.4609H103.768ZM103.735 20.2381L102.649 19.2616L102.515 19.4103L103.601 20.3869L103.735 20.2381ZM106.567 19.7102L105.77 20.4993L105.91 20.6414L106.707 19.8523L106.567 19.7102ZM105.74 20.5703V28.5312H105.94V20.5703H105.74ZM105.765 28.5979L107.078 30.0666L107.227 29.9334L105.915 28.4646L105.765 28.5979ZM107.153 29.9H103.09V30.1H107.153V29.9ZM103.163 29.9321L102.968 29.7211L102.821 29.857L103.017 30.0679L103.163 29.9321ZM102.895 29.8891H106.692V29.6891H102.895V29.8891ZM106.766 29.7219L105.695 28.5422L105.547 28.6766L106.618 29.8563L106.766 29.7219ZM105.721 28.6094V20.5H105.521V28.6094H105.721ZM105.692 20.571L106.574 19.696L106.434 19.554L105.551 20.429L105.692 20.571ZM106.428 19.6898L106.561 19.846L106.713 19.7165L106.58 19.5602L106.428 19.6898ZM116.238 19.6094L116.327 19.6547L116.463 19.3871L116.194 19.5197L116.238 19.6094ZM114.777 22.4844L114.678 22.4958L114.716 22.8261L114.866 22.5297L114.777 22.4844ZM114.004 20.6094L113.932 20.6788L113.932 20.6792L114.004 20.6094ZM110.058 21.1016L109.977 21.0432L109.977 21.0435L110.058 21.1016ZM114.207 28.8203V28.9203H114.307V28.8203H114.207ZM114.207 24.7656H114.307V24.6656H114.207V24.7656ZM111.316 24.6953L111.291 24.7922L111.292 24.7923L111.316 24.6953ZM110.785 24.3906H110.685V24.4349L110.718 24.4646L110.785 24.3906ZM110.785 24.1953L110.845 24.1153L110.685 23.9953V24.1953H110.785ZM111.347 24.4766L111.323 24.5736L111.326 24.5742L111.347 24.4766ZM114.207 24.5391V24.6391H114.307V24.5391H114.207ZM114.207 24.1172H114.307V24.0172H114.207V24.1172ZM111.535 22.625L111.464 22.6957L111.466 22.6975L111.535 22.625ZM111.441 23.375L111.462 23.4729L111.463 23.4727L111.441 23.375ZM111.254 23.4141L111.233 23.3161L111.229 23.317L111.254 23.4141ZM116.84 23.5938L116.91 23.6652L117.085 23.4937H116.84V23.5938ZM115.762 24.6484L115.692 24.577L115.662 24.6064V24.6484H115.762ZM115.762 28.5H115.662V28.5459L115.696 28.5758L115.762 28.5ZM116.762 29.3594V29.4594H117.031L116.827 29.2835L116.762 29.3594ZM109.027 28.2578L109.095 28.1846L109.095 28.1841L109.027 28.2578ZM108.941 20.5156L109.01 20.5884L109.01 20.5883L108.941 20.5156ZM113.847 19.5703L113.874 19.4739L113.874 19.4738L113.847 19.5703ZM116.707 20.1016L116.796 20.1469L116.841 20.0587L116.753 20.0129L116.707 20.1016ZM115.371 22.7266L115.329 22.8175L115.416 22.8575L115.46 22.7719L115.371 22.7266ZM115.183 22.6406L115.094 22.5952L115.047 22.6881L115.142 22.7315L115.183 22.6406ZM116.527 20.0078L116.573 19.9192L116.484 19.8725L116.438 19.9624L116.527 20.0078ZM114.207 21.2891L114.148 21.3701L114.307 21.4846V21.2891H114.207ZM114.066 21.1875L114.125 21.1064L114.124 21.106L114.066 21.1875ZM110.902 21.1875L110.832 21.1159L110.831 21.1168L110.902 21.1875ZM110.222 22.4141L110.126 22.3872L110.126 22.3882L110.222 22.4141ZM111.48 28.3359H111.58V28.288L111.543 28.258L111.48 28.3359ZM111.48 28.4219L111.429 28.5078L111.58 28.5977V28.4219H111.48ZM110.176 26.9062L110.083 26.9438L110.083 26.944L110.176 26.9062ZM110.472 21.3672L110.555 21.4234L110.555 21.4231L110.472 21.3672ZM114.207 21.2422H114.307V21.2085L114.287 21.1817L114.207 21.2422ZM117.176 24.0391L117.246 24.1098L117.305 24.0506L117.258 23.982L117.176 24.0391ZM116.371 24.8438L116.3 24.773L116.271 24.8023V24.8438H116.371ZM116.371 28.5078H116.271V28.5452L116.295 28.5734L116.371 28.5078ZM117.668 30L117.667 30.1L117.889 30.1017L117.743 29.9344L117.668 30ZM114.566 29.9766L114.567 29.8765L114.565 29.8766L114.566 29.9766ZM111.754 30.0078V30.1078L111.755 30.1078L111.754 30.0078ZM110.355 29.5625V29.4625H110.055L110.295 29.6425L110.355 29.5625ZM110.519 29.5625L110.56 29.471L110.54 29.4625H110.519V29.5625ZM111.972 29.7969V29.8969L111.974 29.8969L111.972 29.7969ZM112.363 29.7891V29.689L112.361 29.6891L112.363 29.7891ZM117.23 29.7891V29.8891H117.455L117.305 29.7221L117.23 29.7891ZM116.152 28.5938H116.052V28.6322L116.078 28.6607L116.152 28.5938ZM116.152 24.7656L116.081 24.6952L116.052 24.7245V24.7656H116.152ZM117.051 23.8594L117.133 23.8023L117.064 23.7037L116.98 23.789L117.051 23.8594ZM116.149 19.5641L114.688 22.4391L114.866 22.5297L116.327 19.6547L116.149 19.5641ZM114.877 22.473C114.781 21.6412 114.517 20.9926 114.075 20.5395L113.932 20.6792C114.334 21.0908 114.586 21.6922 114.678 22.4958L114.877 22.473ZM114.076 20.54C113.637 20.0852 113.058 19.8609 112.347 19.8609V20.0609C113.012 20.0609 113.537 20.2689 113.932 20.6788L114.076 20.54ZM112.347 19.8609C111.338 19.8609 110.544 20.2553 109.977 21.0432L110.14 21.1599C110.667 20.427 111.399 20.0609 112.347 20.0609V19.8609ZM109.977 21.0435C109.419 21.8271 109.146 22.9155 109.146 24.2969H109.346C109.346 22.9386 109.615 21.8968 110.14 21.1596L109.977 21.0435ZM109.146 24.2969C109.146 25.8158 109.456 26.9735 110.094 27.7528C110.735 28.5359 111.693 28.9203 112.949 28.9203V28.7203C111.736 28.7203 110.842 28.3508 110.249 27.6261C109.653 26.8976 109.346 25.7936 109.346 24.2969H109.146ZM112.949 28.9203H114.207V28.7203H112.949V28.9203ZM114.307 28.8203V24.7656H114.107V28.8203H114.307ZM114.207 24.6656H112.238V24.8656H114.207V24.6656ZM112.238 24.6656C111.812 24.6656 111.515 24.642 111.34 24.5983L111.292 24.7923C111.492 24.8424 111.81 24.8656 112.238 24.8656V24.6656ZM111.341 24.5985C111.178 24.5565 111.015 24.4645 110.852 24.3166L110.718 24.4646C110.899 24.6293 111.09 24.7404 111.291 24.7922L111.341 24.5985ZM110.885 24.3906V24.1953H110.685V24.3906H110.885ZM110.725 24.2753C110.921 24.4223 111.12 24.5229 111.323 24.5736L111.372 24.3795C111.2 24.3365 111.024 24.2496 110.845 24.1153L110.725 24.2753ZM111.326 24.5742C111.525 24.6184 111.839 24.6391 112.262 24.6391V24.4391C111.84 24.4391 111.545 24.4181 111.369 24.3789L111.326 24.5742ZM112.262 24.6391H114.207V24.4391H112.262V24.6391ZM114.307 24.5391V24.1172H114.107V24.5391H114.307ZM114.207 24.0172H112.035V24.2172H114.207V24.0172ZM112.035 24.0172H111.683V24.2172H112.035V24.0172ZM111.683 24.0172C111.304 24.0172 111.038 23.948 110.869 23.8253C110.706 23.7069 110.619 23.529 110.619 23.2734H110.419C110.419 23.5804 110.527 23.8243 110.752 23.9872C110.97 24.1458 111.286 24.2172 111.683 24.2172V24.0172ZM110.619 23.2734C110.619 23.0762 110.677 22.9118 110.791 22.775L110.638 22.6469C110.491 22.8225 110.419 23.0332 110.419 23.2734H110.619ZM110.791 22.775C110.905 22.6385 111.034 22.5766 111.183 22.5766V22.3766C110.968 22.3766 110.785 22.4708 110.638 22.6469L110.791 22.775ZM111.183 22.5766C111.291 22.5766 111.383 22.6148 111.464 22.6957L111.606 22.5543C111.489 22.4373 111.346 22.3766 111.183 22.3766V22.5766ZM111.466 22.6975C111.552 22.7789 111.591 22.8704 111.591 22.9766H111.791C111.791 22.8119 111.727 22.669 111.604 22.5525L111.466 22.6975ZM111.591 22.9766C111.591 23.0805 111.572 23.1502 111.544 23.1949C111.518 23.2364 111.48 23.2643 111.42 23.2773L111.463 23.4727C111.57 23.4493 111.656 23.3925 111.713 23.3012C111.769 23.2131 111.791 23.1018 111.791 22.9766H111.591ZM111.421 23.2771L111.233 23.3162L111.274 23.512L111.462 23.4729L111.421 23.2771ZM111.229 23.317C111.191 23.3266 111.151 23.3418 111.119 23.3685C111.084 23.398 111.06 23.4406 111.06 23.4922H111.26C111.26 23.4979 111.259 23.5048 111.255 23.5115C111.252 23.5179 111.248 23.5213 111.247 23.5221C111.247 23.5228 111.248 23.5215 111.253 23.5191C111.259 23.5168 111.267 23.5139 111.278 23.5111L111.229 23.317ZM111.06 23.4922C111.06 23.5323 111.073 23.5701 111.1 23.6012C111.125 23.6305 111.157 23.6491 111.188 23.6614C111.249 23.6853 111.328 23.6938 111.418 23.6938V23.4937C111.335 23.4937 111.286 23.4852 111.261 23.4753C111.249 23.4707 111.249 23.4682 111.252 23.472C111.257 23.4777 111.26 23.4859 111.26 23.4922H111.06ZM111.418 23.6938H111.683V23.4937H111.418V23.6938ZM111.683 23.6938H116.84V23.4937H111.683V23.6938ZM116.77 23.5223L115.692 24.577L115.831 24.7199L116.91 23.6652L116.77 23.5223ZM115.662 24.6484V28.5H115.862V24.6484H115.662ZM115.696 28.5758L116.696 29.4352L116.827 29.2835L115.827 28.4242L115.696 28.5758ZM116.762 29.2594H112.769V29.4594H116.762V29.2594ZM112.769 29.2594H111.98V29.4594H112.769V29.2594ZM111.98 29.2594C111.326 29.2594 110.792 29.1794 110.375 29.0235L110.305 29.2109C110.752 29.3779 111.312 29.4594 111.98 29.4594V29.2594ZM110.375 29.0235C109.958 28.8678 109.531 28.5897 109.095 28.1846L108.959 28.3311C109.409 28.7488 109.857 29.0437 110.305 29.2109L110.375 29.0235ZM109.095 28.1841C108.071 27.2473 107.557 25.9917 107.557 24.4062H107.357C107.357 26.0395 107.889 27.3517 108.96 28.3316L109.095 28.1841ZM107.557 24.4062C107.557 22.7658 108.045 21.4977 109.01 20.5884L108.873 20.4428C107.859 21.3981 107.357 22.7238 107.357 24.4062H107.557ZM109.01 20.5883C109.856 19.7881 110.857 19.3891 112.019 19.3891V19.1891C110.806 19.1891 109.756 19.6077 108.873 20.443L109.01 20.5883ZM112.019 19.3891C112.539 19.3891 113.14 19.4809 113.821 19.6668L113.874 19.4738C113.18 19.2847 112.562 19.1891 112.019 19.1891V19.3891ZM113.821 19.6668C114.174 19.7634 114.468 19.8363 114.702 19.885C114.935 19.9334 115.115 19.9594 115.238 19.9594V19.7594C115.137 19.7594 114.974 19.7372 114.743 19.6892C114.514 19.6416 114.224 19.5699 113.874 19.4739L113.821 19.6668ZM115.238 19.9594C115.584 19.9594 115.932 19.8715 116.282 19.6991L116.194 19.5197C115.867 19.6806 115.549 19.7594 115.238 19.7594V19.9594ZM116.618 20.0562L115.282 22.6812L115.46 22.7719L116.796 20.1469L116.618 20.0562ZM115.413 22.6357L115.225 22.5497L115.142 22.7315L115.329 22.8175L115.413 22.6357ZM115.272 22.6861L116.616 20.0533L116.438 19.9624L115.094 22.5952L115.272 22.6861ZM116.481 20.0965L116.661 20.1902L116.753 20.0129L116.573 19.9192L116.481 20.0965ZM114.265 21.208L114.125 21.1064L114.008 21.2686L114.148 21.3701L114.265 21.208ZM114.124 21.106C113.521 20.6776 112.959 20.4547 112.441 20.4547V20.6547C112.902 20.6547 113.424 20.8536 114.008 21.269L114.124 21.106ZM112.441 20.4547C111.821 20.4547 111.283 20.6762 110.832 21.1159L110.972 21.2591C111.386 20.8551 111.874 20.6547 112.441 20.6547V20.4547ZM110.831 21.1168C110.505 21.4436 110.271 21.8685 110.126 22.3872L110.319 22.4409C110.456 21.9492 110.675 21.5564 110.973 21.2582L110.831 21.1168ZM110.126 22.3882C109.987 22.9052 109.919 23.5816 109.919 24.4141H110.119C110.119 23.5902 110.187 22.9333 110.319 22.44L110.126 22.3882ZM109.919 24.4141C109.919 25.4704 110.024 26.2892 110.238 26.8631L110.426 26.7931C110.223 26.2525 110.119 25.4619 110.119 24.4141H109.919ZM110.238 26.8631C110.454 27.4404 110.849 27.957 111.418 28.4139L111.543 28.258C110.997 27.8191 110.626 27.3305 110.426 26.7931L110.238 26.8631ZM111.38 28.3359V28.4219H111.58V28.3359H111.38ZM111.531 28.3359C110.946 27.9877 110.526 27.4994 110.268 26.8685L110.083 26.944C110.357 27.6152 110.806 28.1373 111.429 28.5078L111.531 28.3359ZM110.268 26.8687C110.009 26.2293 109.877 25.3557 109.877 24.2422H109.677C109.677 25.3682 109.81 26.2707 110.083 26.9438L110.268 26.8687ZM109.877 24.2422C109.877 23.0185 110.107 22.0828 110.555 21.4234L110.39 21.311C109.911 22.0162 109.677 22.9971 109.677 24.2422H109.877ZM110.555 21.4231C111 20.7635 111.62 20.4359 112.426 20.4359V20.2359C111.554 20.2359 110.872 20.5958 110.39 21.3113L110.555 21.4231ZM112.426 20.4359C113.122 20.4359 113.687 20.7222 114.127 21.3026L114.287 21.1817C113.81 20.5538 113.187 20.2359 112.426 20.2359V20.4359ZM114.107 21.2422V21.2891H114.307V21.2422H114.107ZM117.105 23.9684L116.3 24.773L116.442 24.9145L117.246 24.1098L117.105 23.9684ZM116.271 24.8438V28.5078H116.471V24.8438H116.271ZM116.295 28.5734L117.592 30.0656L117.743 29.9344L116.446 28.4422L116.295 28.5734ZM117.669 29.9L114.567 29.8766L114.565 30.0766L117.667 30.1L117.669 29.9ZM114.565 29.8766L111.753 29.9078L111.755 30.1078L114.567 30.0766L114.565 29.8766ZM111.754 29.9078C111.578 29.9078 111.447 29.9026 111.359 29.8928L111.336 30.0916C111.436 30.1026 111.576 30.1078 111.754 30.1078V29.9078ZM111.359 29.8928C111.052 29.8588 110.738 29.7246 110.415 29.4825L110.295 29.6425C110.639 29.9004 110.986 30.0527 111.336 30.0916L111.359 29.8928ZM110.355 29.6625H110.519V29.4625H110.355V29.6625ZM110.479 29.654C110.851 29.8182 111.351 29.8969 111.972 29.8969V29.6969C111.365 29.6969 110.896 29.6193 110.56 29.471L110.479 29.654ZM111.974 29.8969L112.365 29.889L112.361 29.6891L111.97 29.6969L111.974 29.8969ZM112.363 29.8891H117.23V29.6891H112.363V29.8891ZM117.305 29.7221L116.226 28.5268L116.078 28.6607L117.156 29.856L117.305 29.7221ZM116.252 28.5938V24.7656H116.052V28.5938H116.252ZM116.223 24.836L117.122 23.9298L116.98 23.789L116.081 24.6952L116.223 24.836ZM116.969 23.9165L117.094 24.0962L117.258 23.982L117.133 23.8023L116.969 23.9165ZM118.425 19.3359V19.2359H118.167L118.358 19.4099L118.425 19.3359ZM122.097 19.3359L122.167 19.4074L122.342 19.2359H122.097V19.3359ZM121.035 20.375L120.965 20.3035L120.935 20.3329V20.375H121.035ZM121.035 23.75H120.935V23.8341L121.017 23.8485L121.035 23.75ZM121.456 23.7969L121.45 23.8967L121.556 23.9035V23.7969H121.456ZM121.456 20.4531L121.386 20.3821L121.356 20.4114V20.4531H121.456ZM122.308 19.6094L122.375 19.535L122.305 19.4719L122.238 19.5383L122.308 19.6094ZM122.464 19.75L122.535 19.8211L122.61 19.7465L122.531 19.6757L122.464 19.75ZM121.66 20.5469L121.589 20.4758L121.56 20.5052V20.5469H121.66ZM121.66 23.8047H121.56V23.896L121.651 23.9043L121.66 23.8047ZM121.917 23.8281L121.908 23.9277L121.917 23.8281ZM124.48 23.8047L124.493 23.9038L124.58 23.8922V23.8047H124.48ZM124.48 20.2109H124.58V20.167L124.548 20.1373L124.48 20.2109ZM123.527 19.3359V19.2359H123.27L123.459 19.4096L123.527 19.3359ZM127.136 19.3359L127.206 19.4079L127.384 19.2359H127.136V19.3359ZM126.058 20.375L125.989 20.303L125.958 20.3325V20.375H126.058ZM126.058 28.5156H125.958V28.5604L125.991 28.5902L126.058 28.5156ZM127.003 29.3594V29.4594H127.266L127.07 29.2848L127.003 29.3594ZM123.41 29.3594L123.345 29.2833L123.139 29.4594H123.41V29.3594ZM124.48 28.4453L124.545 28.5214L124.58 28.4914V28.4453H124.48ZM124.48 25.1328H124.58V25.0062L124.457 25.0355L124.48 25.1328ZM121.769 25.2188L121.779 25.1192L121.776 25.119L121.769 25.2188ZM121.66 25.2109L121.667 25.1112L121.56 25.1035V25.2109H121.66ZM121.66 28.5156H121.56V28.553L121.584 28.5812L121.66 28.5156ZM122.949 30V30.1H123.168L123.024 29.9344L122.949 30ZM118.91 30L118.838 30.0694L118.867 30.1H118.91V30ZM118.706 29.7891V29.6891H118.471L118.634 29.8584L118.706 29.7891ZM122.519 29.7891V29.8891H122.746L122.593 29.7216L122.519 29.7891ZM121.456 28.625H121.356V28.6638L121.383 28.6924L121.456 28.625ZM121.456 25.0312L121.463 24.9315L121.356 24.9241V25.0312H121.456ZM121.683 25.0469L121.691 24.9472L121.69 24.9471L121.683 25.0469ZM124.48 24.9219L124.514 25.0158L124.58 24.9917V24.9219H124.48ZM124.48 24.6406H124.58V24.5246L124.465 24.5417L124.48 24.6406ZM122.003 24.7266L122.013 24.627L122.012 24.627L122.003 24.7266ZM121.214 24.6562L121.198 24.7552L121.205 24.7559L121.214 24.6562ZM121.035 24.6406L121.04 24.5408L120.935 24.5346V24.6406H121.035ZM121.035 28.5156H120.935V28.5621L120.97 28.5921L121.035 28.5156ZM122.035 29.3594V29.4594H122.308L122.099 29.2829L122.035 29.3594ZM118.425 29.3594L118.359 29.284L118.159 29.4594H118.425V29.3594ZM119.472 28.4453L119.538 28.5206L119.572 28.4908V28.4453H119.472ZM119.472 25.0312H119.572V24.9312H119.472V25.0312ZM118.425 25.5469L118.382 25.6372L118.456 25.6722L118.505 25.6073L118.425 25.5469ZM118.261 25.4688L118.183 25.4065L118.105 25.505L118.218 25.559L118.261 25.4688ZM119.472 24.8359L119.48 24.9356L119.572 24.928V24.8359H119.472ZM119.472 24.5469H119.572V24.4469H119.472V24.5469ZM118.089 25.2109L118.034 25.2941L118.112 25.3461L118.169 25.2717L118.089 25.2109ZM117.972 25.1328L117.88 25.0949L117.849 25.1706L117.917 25.216L117.972 25.1328ZM119.472 23.8047L119.491 23.9028L119.572 23.887V23.8047H119.472ZM119.472 20.2891H119.572V20.2449L119.539 20.2151L119.472 20.2891ZM127.464 19.7734L127.534 19.8452L127.598 19.7834L127.544 19.7128L127.464 19.7734ZM126.667 20.5469L126.598 20.4751L126.567 20.5046V20.5469H126.667ZM126.667 28.5156H126.567V28.5532L126.592 28.5814L126.667 28.5156ZM127.964 30V30.1H128.184L128.04 29.9342L127.964 30ZM123.91 30L123.836 30.0679L123.866 30.1H123.91V30ZM123.714 29.7891V29.6891H123.485L123.641 29.857L123.714 29.7891ZM127.519 29.7891V29.8891H127.741L127.594 29.7227L127.519 29.7891ZM126.472 28.6094H126.372V28.6473L126.397 28.6757L126.472 28.6094ZM126.472 20.4688L126.402 20.3977L126.372 20.4271V20.4688H126.472ZM127.339 19.6094L127.419 19.5488L127.35 19.4582L127.269 19.5383L127.339 19.6094ZM118.425 19.4359H122.097V19.2359H118.425V19.4359ZM122.027 19.2644L120.965 20.3035L121.105 20.4465L122.167 19.4074L122.027 19.2644ZM120.935 20.375V23.75H121.135V20.375H120.935ZM121.017 23.8485C121.142 23.8701 121.286 23.8861 121.45 23.8967L121.463 23.6971C121.304 23.6868 121.167 23.6715 121.052 23.6515L121.017 23.8485ZM121.556 23.7969V20.4531H121.356V23.7969H121.556ZM121.527 20.5242L122.378 19.6804L122.238 19.5383L121.386 20.3821L121.527 20.5242ZM122.241 19.6837L122.397 19.8243L122.531 19.6757L122.375 19.535L122.241 19.6837ZM122.394 19.6789L121.589 20.4758L121.73 20.6179L122.535 19.8211L122.394 19.6789ZM121.56 20.5469V23.8047H121.76V20.5469H121.56ZM121.651 23.9043L121.908 23.9277L121.926 23.7285L121.669 23.7051L121.651 23.9043ZM121.908 23.9277C122.312 23.9644 122.703 23.9828 123.081 23.9828V23.7828C122.71 23.7828 122.325 23.7647 121.926 23.7285L121.908 23.9277ZM123.081 23.9828C123.626 23.9828 124.097 23.9566 124.493 23.9038L124.467 23.7056C124.082 23.7569 123.62 23.7828 123.081 23.7828V23.9828ZM124.58 23.8047V20.2109H124.38V23.8047H124.58ZM124.548 20.1373L123.594 19.2623L123.459 19.4096L124.412 20.2846L124.548 20.1373ZM123.527 19.4359H127.136V19.2359H123.527V19.4359ZM127.067 19.2639L125.989 20.303L126.127 20.447L127.206 19.4079L127.067 19.2639ZM125.958 20.375V28.5156H126.158V20.375H125.958ZM125.991 28.5902L126.937 29.434L127.07 29.2848L126.125 28.441L125.991 28.5902ZM127.003 29.2594H123.41V29.4594H127.003V29.2594ZM123.475 29.4354L124.545 28.5214L124.415 28.3693L123.345 29.2833L123.475 29.4354ZM124.58 28.4453V25.1328H124.38V28.4453H124.58ZM124.457 25.0355C124.027 25.1378 123.584 25.1891 123.128 25.1891V25.3891C123.599 25.3891 124.058 25.3361 124.503 25.2301L124.457 25.0355ZM123.128 25.1891C122.694 25.1891 122.245 25.1658 121.779 25.1192L121.759 25.3183C122.231 25.3654 122.687 25.3891 123.128 25.3891V25.1891ZM121.776 25.119L121.667 25.1112L121.652 25.3107L121.762 25.3185L121.776 25.119ZM121.56 25.2109V28.5156H121.76V25.2109H121.56ZM121.584 28.5812L122.873 30.0656L123.024 29.9344L121.735 28.4501L121.584 28.5812ZM122.949 29.9H118.91V30.1H122.949V29.9ZM118.982 29.9306L118.779 29.7197L118.634 29.8584L118.838 30.0694L118.982 29.9306ZM118.706 29.8891H122.519V29.6891H118.706V29.8891ZM122.593 29.7216L121.53 28.5576L121.383 28.6924L122.445 29.8565L122.593 29.7216ZM121.556 28.625V25.0312H121.356V28.625H121.556ZM121.45 25.131L121.676 25.1466L121.69 24.9471L121.463 24.9315L121.45 25.131ZM121.675 25.1466C122.363 25.1987 122.864 25.225 123.175 25.225V25.025C122.872 25.025 122.378 24.9992 121.691 24.9472L121.675 25.1466ZM123.175 25.225C123.684 25.225 124.131 25.1562 124.514 25.0158L124.446 24.828C124.089 24.9584 123.667 25.025 123.175 25.025V25.225ZM124.58 24.9219V24.6406H124.38V24.9219H124.58ZM124.465 24.5417C123.982 24.6137 123.417 24.65 122.769 24.65V24.85C123.424 24.85 123.999 24.8134 124.495 24.7395L124.465 24.5417ZM122.769 24.65C122.42 24.65 122.169 24.6422 122.013 24.627L121.994 24.8261C122.16 24.8422 122.42 24.85 122.769 24.85V24.65ZM122.012 24.627L121.223 24.5566L121.205 24.7559L121.994 24.8262L122.012 24.627ZM121.231 24.5576C121.193 24.5514 121.128 24.546 121.04 24.5408L121.029 24.7405C121.118 24.7457 121.173 24.7507 121.198 24.7549L121.231 24.5576ZM120.935 24.6406V28.5156H121.135V24.6406H120.935ZM120.97 28.5921L121.97 29.4358L122.099 29.2829L121.099 28.4392L120.97 28.5921ZM122.035 29.2594H118.425V29.4594H122.035V29.2594ZM118.491 29.4347L119.538 28.5206L119.406 28.37L118.359 29.284L118.491 29.4347ZM119.572 28.4453V25.0312H119.372V28.4453H119.572ZM119.472 24.9312C119.004 24.9312 118.625 25.1174 118.346 25.4865L118.505 25.6073C118.746 25.2889 119.065 25.1313 119.472 25.1313V24.9312ZM118.468 25.4566L118.304 25.3785L118.218 25.559L118.382 25.6372L118.468 25.4566ZM118.339 25.531C118.624 25.1734 119.001 24.9751 119.48 24.9356L119.464 24.7363C118.933 24.7801 118.503 25.0037 118.183 25.4065L118.339 25.531ZM119.572 24.8359V24.5469H119.372V24.8359H119.572ZM119.472 24.4469C118.859 24.4469 118.368 24.6814 118.01 25.1502L118.169 25.2717C118.487 24.855 118.918 24.6469 119.472 24.6469V24.4469ZM118.145 25.1277L118.028 25.0496L117.917 25.216L118.034 25.2941L118.145 25.1277ZM118.065 25.1707C118.361 24.4465 118.837 24.0307 119.491 23.9028L119.453 23.7065C118.722 23.8495 118.197 24.3192 117.88 25.0949L118.065 25.1707ZM119.572 23.8047V20.2891H119.372V23.8047H119.572ZM119.539 20.2151L118.493 19.262L118.358 19.4099L119.405 20.363L119.539 20.2151ZM127.395 19.7017L126.598 20.4751L126.737 20.6186L127.534 19.8452L127.395 19.7017ZM126.567 20.5469V28.5156H126.767V20.5469H126.567ZM126.592 28.5814L127.889 30.0658L128.04 29.9342L126.743 28.4498L126.592 28.5814ZM127.964 29.9H123.91V30.1H127.964V29.9ZM123.983 29.9321L123.788 29.7211L123.641 29.857L123.836 30.0679L123.983 29.9321ZM123.714 29.8891H127.519V29.6891H123.714V29.8891ZM127.594 29.7227L126.547 28.543L126.397 28.6757L127.444 29.8554L127.594 29.7227ZM126.572 28.6094V20.4688H126.372V28.6094H126.572ZM126.543 20.5398L127.41 19.6804L127.269 19.5383L126.402 20.3977L126.543 20.5398ZM127.26 19.67L127.385 19.834L127.544 19.7128L127.419 19.5488L127.26 19.67ZM136.925 19.3359L137.013 19.3827L137.091 19.2359H136.925V19.3359ZM136.831 19.5156L136.918 19.565L136.921 19.5603L136.831 19.5156ZM136.3 20.4531L136.213 20.4038L136.212 20.4051L136.3 20.4531ZM135.792 21.7031L135.885 21.7404L135.888 21.733L135.792 21.7031ZM135.776 21.7422L135.719 21.8241L135.822 21.8965L135.869 21.7793L135.776 21.7422ZM135.698 21.6875L135.601 21.71L135.61 21.7474L135.641 21.7694L135.698 21.6875ZM135.675 21.5859L135.772 21.5634L135.772 21.5613L135.675 21.5859ZM135.026 20.3516L134.963 20.4285L134.963 20.4291L135.026 20.3516ZM133.05 20.0391V20.1395L133.059 20.1387L133.05 20.0391ZM132.956 20.0391V19.9391H132.856V20.0391H132.956ZM132.956 28.5078H132.856V28.5516L132.888 28.5813L132.956 28.5078ZM133.878 29.3594V29.4594H134.134L133.946 29.2859L133.878 29.3594ZM130.308 29.3594L130.244 29.2826L130.032 29.4594H130.308V29.3594ZM131.401 28.4453L131.466 28.522L131.501 28.4921V28.4453H131.401ZM131.401 20.6719H131.501V20.5733L131.403 20.5719L131.401 20.6719ZM130.847 20.6641L130.848 20.5641H130.847V20.6641ZM129.698 20.9844L129.766 21.0576L129.766 21.0575L129.698 20.9844ZM129.3 22.0938V22.1938H129.392L129.4 22.1016L129.3 22.0938ZM129.097 22.0938L128.997 22.0844L128.987 22.1938H129.097V22.0938ZM129.565 20.8203L129.498 20.7467L129.497 20.7474L129.565 20.8203ZM130.847 20.4609L130.848 20.3609H130.847V20.4609ZM131.315 20.4688L131.314 20.5688H131.315V20.4688ZM131.401 20.4688V20.5688H131.501V20.4688H131.401ZM131.401 20.0859H131.501V19.997L131.413 19.9866L131.401 20.0859ZM129.19 20.4531L129.258 20.527L129.259 20.5264L129.19 20.4531ZM128.698 21.8359V21.9359H128.794L128.798 21.8407L128.698 21.8359ZM128.605 21.8359L128.509 21.8655L128.531 21.9359H128.605V21.8359ZM127.565 19.4141L127.654 19.3674L127.651 19.3626L127.565 19.4141ZM127.519 19.3359V19.2359H127.342L127.433 19.3874L127.519 19.3359ZM137.417 19.8281L137.496 19.8898L137.55 19.8201L137.488 19.7574L137.417 19.8281ZM136.284 22.1094L136.377 22.1465L136.378 22.1443L136.284 22.1094ZM136.253 22.1875L136.188 22.2632L136.294 22.3548L136.346 22.2246L136.253 22.1875ZM136.081 22.0391L135.986 22.0074L135.965 22.071L136.016 22.1147L136.081 22.0391ZM136.105 21.9688L136.01 21.9351L136.01 21.9371L136.105 21.9688ZM137.222 19.7188L137.298 19.7836L137.299 19.7828L137.222 19.7188ZM137.261 19.6719L137.332 19.6012L137.254 19.5237L137.184 19.6079L137.261 19.6719ZM135.331 21.0469L135.277 21.1307L135.575 21.3242L135.421 21.0037L135.331 21.0469ZM133.55 20.6797L133.538 20.5804L133.45 20.591L133.45 20.6801L133.55 20.6797ZM133.581 28.5312L133.481 28.5316L133.481 28.568L133.505 28.5958L133.581 28.5312ZM134.823 30V30.1H135.039L134.9 29.9354L134.823 30ZM130.831 30L130.755 30.0648L130.785 30.1H130.831V30ZM130.651 29.7891V29.6891H130.435L130.575 29.8539L130.651 29.7891ZM134.394 29.7891V29.8891H134.614L134.469 29.7232L134.394 29.7891ZM133.347 28.5938H133.247V28.6313L133.272 28.6596L133.347 28.5938ZM133.347 20.4531L133.345 20.3531L133.247 20.355V20.4531H133.347ZM133.769 20.4453V20.3453L133.767 20.3453L133.769 20.4453ZM134.839 20.5703L134.802 20.6632L134.805 20.6642L134.839 20.5703ZM136.836 19.2891C136.79 19.3776 136.758 19.4385 136.742 19.4709L136.921 19.5603C136.936 19.5303 136.966 19.4714 137.013 19.3827L136.836 19.2891ZM136.744 19.4663L136.213 20.4038L136.387 20.5024L136.918 19.5649L136.744 19.4663ZM136.212 20.4051C136.026 20.746 135.854 21.1692 135.697 21.6733L135.888 21.733C136.042 21.2371 136.209 20.8269 136.388 20.5011L136.212 20.4051ZM135.699 21.666L135.684 21.705L135.869 21.7793L135.885 21.7403L135.699 21.666ZM135.834 21.6603L135.756 21.6056L135.641 21.7694L135.719 21.8241L135.834 21.6603ZM135.796 21.665L135.772 21.5635L135.577 21.6084L135.601 21.71L135.796 21.665ZM135.772 21.5613C135.619 20.9597 135.395 20.5233 135.09 20.274L134.963 20.4291C135.22 20.6382 135.429 21.0247 135.578 21.6106L135.772 21.5613ZM135.09 20.2746C134.788 20.0239 134.336 19.9078 133.753 19.9078V20.1078C134.316 20.1078 134.712 20.2209 134.963 20.4285L135.09 20.2746ZM133.753 19.9078C133.516 19.9078 133.278 19.9184 133.041 19.9395L133.059 20.1387C133.29 20.1181 133.522 20.1078 133.753 20.1078V19.9078ZM133.05 19.9391H132.956V20.1391H133.05V19.9391ZM132.856 20.0391V28.5078H133.056V20.0391H132.856ZM132.888 28.5813L133.81 29.4328L133.946 29.2859L133.024 28.4344L132.888 28.5813ZM133.878 29.2594H130.308V29.4594H133.878V29.2594ZM130.372 29.4361L131.466 28.522L131.337 28.3686L130.244 29.2826L130.372 29.4361ZM131.501 28.4453V20.6719H131.301V28.4453H131.501ZM131.403 20.5719L130.848 20.5641L130.845 20.7641L131.4 20.7719L131.403 20.5719ZM130.847 20.5641C130.302 20.5641 129.887 20.6717 129.63 20.9112L129.766 21.0575C129.968 20.87 130.319 20.7641 130.847 20.7641V20.5641ZM129.63 20.9112C129.378 21.1454 129.242 21.5467 129.2 22.0859L129.4 22.1016C129.441 21.5783 129.57 21.24 129.766 21.0576L129.63 20.9112ZM129.3 21.9937H129.097V22.1938H129.3V21.9937ZM129.196 22.1031C129.253 21.5015 129.406 21.1075 129.634 20.8932L129.497 20.7474C129.215 21.0123 129.055 21.4673 128.997 22.0844L129.196 22.1031ZM129.633 20.8939C129.866 20.6796 130.262 20.5609 130.847 20.5609V20.3609C130.244 20.3609 129.786 20.4818 129.498 20.7467L129.633 20.8939ZM130.845 20.5609L131.314 20.5687L131.317 20.3688L130.848 20.361L130.845 20.5609ZM131.315 20.5688H131.401V20.3687H131.315V20.5688ZM131.501 20.4688V20.0859H131.301V20.4688H131.501ZM131.413 19.9866C131.144 19.955 130.888 19.9391 130.644 19.9391V20.1391C130.879 20.1391 131.128 20.1544 131.39 20.1853L131.413 19.9866ZM130.644 19.9391C129.962 19.9391 129.447 20.0784 129.122 20.3799L129.259 20.5264C129.528 20.2758 129.981 20.1391 130.644 20.1391V19.9391ZM129.123 20.3792C128.798 20.6763 128.63 21.1694 128.598 21.8311L128.798 21.8407C128.829 21.2004 128.99 20.7717 129.258 20.527L129.123 20.3792ZM128.698 21.7359H128.605V21.9359H128.698V21.7359ZM128.7 21.8064C128.474 21.075 128.125 20.2619 127.654 19.3675L127.477 19.4606C127.944 20.3475 128.287 21.149 128.509 21.8655L128.7 21.8064ZM127.651 19.3626L127.604 19.2845L127.433 19.3874L127.48 19.4655L127.651 19.3626ZM127.519 19.4359H136.925V19.2359H127.519V19.4359ZM137.338 19.7664C136.969 20.2373 136.587 21.0096 136.191 22.0745L136.378 22.1443C136.773 21.0841 137.146 20.3356 137.496 19.8898L137.338 19.7664ZM136.191 22.0722L136.16 22.1504L136.346 22.2246L136.377 22.1465L136.191 22.0722ZM136.318 22.1118L136.146 21.9634L136.016 22.1147L136.188 22.2632L136.318 22.1118ZM136.176 22.0707L136.199 22.0004L136.01 21.9371L135.986 22.0074L136.176 22.0707ZM136.199 22.0024C136.583 20.9262 136.951 20.1908 137.298 19.7836L137.146 19.6539C136.774 20.0904 136.396 20.8551 136.01 21.9351L136.199 22.0024ZM137.299 19.7828L137.338 19.7359L137.184 19.6079L137.145 19.6547L137.299 19.7828ZM137.19 19.7426L137.346 19.8988L137.488 19.7574L137.332 19.6012L137.19 19.7426ZM135.386 20.963C134.966 20.6908 134.478 20.5562 133.925 20.5562V20.7563C134.444 20.7563 134.894 20.8821 135.277 21.1307L135.386 20.963ZM133.925 20.5562C133.801 20.5562 133.672 20.5643 133.538 20.5804L133.562 20.779C133.688 20.7638 133.809 20.7563 133.925 20.7563V20.5562ZM133.45 20.6801L133.481 28.5316L133.681 28.5309L133.65 20.6793L133.45 20.6801ZM133.505 28.5958L134.747 30.0646L134.9 29.9354L133.657 28.4667L133.505 28.5958ZM134.823 29.9H130.831V30.1H134.823V29.9ZM130.907 29.9352L130.728 29.7242L130.575 29.8539L130.755 30.0648L130.907 29.9352ZM130.651 29.8891H134.394V29.6891H130.651V29.8891ZM134.469 29.7232L133.422 28.5279L133.272 28.6596L134.318 29.8549L134.469 29.7232ZM133.447 28.5938V20.4531H133.247V28.5938H133.447ZM133.349 20.5531L133.77 20.5453L133.767 20.3453L133.345 20.3531L133.349 20.5531ZM133.769 20.5453C134.273 20.5453 134.613 20.5876 134.802 20.6632L134.876 20.4775C134.648 20.3864 134.275 20.3453 133.769 20.3453V20.5453ZM134.805 20.6642C134.989 20.7319 135.136 20.8697 135.241 21.09L135.421 21.0037C135.298 20.7448 135.115 20.565 134.873 20.4764L134.805 20.6642ZM145.878 19.3359L145.954 19.4004L146.093 19.2359H145.878V19.3359ZM145.753 19.4844L145.676 19.42L145.675 19.4212L145.753 19.4844ZM144.487 21.7266L144.395 21.7664L144.494 21.9944L144.581 21.7613L144.487 21.7266ZM144.37 21.4609L144.461 21.4196L144.461 21.4193L144.37 21.4609ZM140.276 20.0156L140.271 19.9157L140.176 19.9203V20.0156H140.276ZM140.276 23.6094H140.176V23.7094H140.276V23.6094ZM140.776 23.6094V23.7094H140.876V23.6094H140.776ZM140.776 20.4297L140.767 20.3301L140.676 20.3385V20.4297H140.776ZM144.206 21.4062L144.148 21.4876L144.291 21.3546L144.206 21.4062ZM144.05 21.2891L144.114 21.2122L144.112 21.2106L144.05 21.2891ZM141.135 20.6328L141.14 20.7327L141.14 20.7327L141.135 20.6328ZM140.971 20.6406L140.967 20.5407L140.871 20.5453V20.6406H140.971ZM140.971 23.6094H140.871V23.7094H140.971V23.6094ZM142.409 23.6094V23.7094H142.46L142.49 23.6683L142.409 23.6094ZM143.417 22.2266H143.517V21.9196L143.336 22.1677L143.417 22.2266ZM143.417 25.5938L143.338 25.6549L143.517 25.8868V25.5938H143.417ZM142.409 24.2891L142.488 24.2279L142.458 24.1891H142.409V24.2891ZM140.276 24.2891V24.1891H140.176V24.2891H140.276ZM140.276 28.6719H140.176V28.7719H140.276V28.6719ZM140.776 28.6719V28.7719H140.876V28.6719H140.776ZM140.776 24.6562V24.5562H140.676V24.6562H140.776ZM142.471 24.6562L142.542 24.5855L142.513 24.5562H142.471V24.6562ZM142.675 24.8594V24.9594H142.916L142.745 24.7887L142.675 24.8594ZM140.971 24.8594V24.7594H140.871V24.8594H140.971ZM140.971 28.6719H140.871V28.7719H140.971V28.6719ZM144.292 27.5547L144.205 27.5044L144.205 27.5047L144.292 27.5547ZM144.706 26.8438L144.792 26.8942L144.795 26.8885L144.706 26.8438ZM144.8 26.6719L144.897 26.6489L144.838 26.3996L144.712 26.6228L144.8 26.6719ZM145.3 28.0469L145.213 28.0968L145.213 28.0977L145.3 28.0469ZM146.3 29.25V29.35H146.543L146.37 29.1789L146.3 29.25ZM137.542 29.25L137.481 29.1705L137.246 29.35H137.542V29.25ZM138.729 28.3438L138.79 28.4232L138.829 28.3932V28.3438H138.729ZM138.729 24.8594H138.829V24.7468L138.717 24.7601L138.729 24.8594ZM137.542 25.2656L137.458 25.3211L137.512 25.4015L137.594 25.3507L137.542 25.2656ZM137.432 25.1016L137.374 25.0205L137.296 25.0768L137.349 25.157L137.432 25.1016ZM138.729 24.6562L138.741 24.7555L138.829 24.7446V24.6562H138.729ZM138.729 24.2891H138.829V24.2001L138.741 24.1897L138.729 24.2891ZM137.089 24.8594L136.992 24.8317L136.897 25.1647L137.155 24.934L137.089 24.8594ZM138.729 23.6094V23.7094H138.829V23.6094H138.729ZM138.729 20.2734H138.829V20.225L138.791 20.1949L138.729 20.2734ZM137.542 19.3359V19.2359H137.254L137.48 19.4144L137.542 19.3359ZM146.253 19.8828L146.332 19.9442L146.376 19.8873L146.336 19.8273L146.253 19.8828ZM146.198 19.9531L146.119 19.8917L146.118 19.8934L146.198 19.9531ZM144.925 22.1016L144.847 22.1645L144.957 22.3011L145.018 22.1362L144.925 22.1016ZM144.792 21.9375L144.7 21.8978L144.676 21.9534L144.714 22.0004L144.792 21.9375ZM146.143 19.7188L146.226 19.6633L146.152 19.551L146.066 19.6553L146.143 19.7188ZM143.956 22.4844H144.056V22.4237L144.002 22.3957L143.956 22.4844ZM143.956 25.9375L143.91 26.0262L144.056 26.1022V25.9375H143.956ZM143.76 25.8359H143.66V25.8966L143.714 25.9247L143.76 25.8359ZM143.76 22.3828L143.807 22.2941L143.66 22.2181V22.3828H143.76ZM147.19 29.2969L147.277 29.3469L147.315 29.2804L147.261 29.2262L147.19 29.2969ZM146.784 30V30.1H146.842L146.87 30.05L146.784 30ZM138.253 30L138.167 30.051L138.196 30.1H138.253V30ZM138.128 29.7891V29.6891H137.952L138.042 29.84L138.128 29.7891ZM146.682 29.7891V29.8891H146.742L146.77 29.8366L146.682 29.7891ZM146.948 29.2969L147.036 29.3444L147.073 29.2761L147.016 29.2234L146.948 29.2969ZM145.362 27.0781L145.397 26.9845L145.187 26.9058L145.269 27.1145L145.362 27.0781ZM145.612 27.1719L145.704 27.1324L145.687 27.0932L145.647 27.0782L145.612 27.1719ZM147.065 29.1719L147.136 29.1012L147.135 29.1004L147.065 29.1719ZM145.801 19.2715L145.676 19.42L145.829 19.5488L145.954 19.4004L145.801 19.2715ZM145.675 19.4212C145.136 20.0813 144.709 20.8385 144.393 21.6918L144.581 21.7613C144.89 20.9271 145.306 20.1895 145.83 19.5476L145.675 19.4212ZM144.579 21.6867C144.527 21.5668 144.487 21.4776 144.461 21.4196L144.279 21.5023C144.304 21.5588 144.343 21.6467 144.395 21.7664L144.579 21.6867ZM144.461 21.4193C144.172 20.7889 143.853 20.3608 143.497 20.1626L143.399 20.3374C143.699 20.5038 143.995 20.883 144.279 21.5026L144.461 21.4193ZM143.497 20.1626C143.144 19.9667 142.532 19.8766 141.682 19.8766V20.0766C142.531 20.0766 143.096 20.1688 143.399 20.3374L143.497 20.1626ZM141.682 19.8766C141.29 19.8766 140.819 19.8896 140.271 19.9157L140.281 20.1155C140.827 20.0895 141.294 20.0766 141.682 20.0766V19.8766ZM140.176 20.0156V23.6094H140.376V20.0156H140.176ZM140.276 23.7094H140.776V23.5094H140.276V23.7094ZM140.876 23.6094V20.4297H140.676V23.6094H140.876ZM140.785 20.5293C141.178 20.4931 141.553 20.475 141.909 20.475V20.275C141.546 20.275 141.165 20.2934 140.767 20.3301L140.785 20.5293ZM141.909 20.475C142.567 20.475 143.036 20.5455 143.329 20.6771L143.411 20.4947C143.078 20.3451 142.574 20.275 141.909 20.275V20.475ZM143.329 20.6771C143.617 20.8068 143.882 21.0625 144.12 21.4579L144.291 21.3546C144.04 20.9375 143.748 20.6464 143.411 20.4947L143.329 20.6771ZM144.264 21.3249C144.191 21.2729 144.142 21.2357 144.114 21.2122L143.985 21.3659C144.02 21.3945 144.075 21.4354 144.148 21.4876L144.264 21.3249ZM144.112 21.2106C143.691 20.8784 143.374 20.6693 143.167 20.6004L143.104 20.7902C143.272 20.8464 143.564 21.033 143.988 21.3675L144.112 21.2106ZM143.167 20.6004C142.962 20.532 142.576 20.5016 142.026 20.5016V20.7016C142.58 20.7016 142.934 20.7336 143.104 20.7902L143.167 20.6004ZM142.026 20.5016C141.857 20.5016 141.558 20.5121 141.131 20.5329L141.14 20.7327C141.568 20.7119 141.862 20.7016 142.026 20.7016V20.5016ZM141.131 20.5329L140.967 20.5407L140.976 20.7405L141.14 20.7327L141.131 20.5329ZM140.871 20.6406V23.6094H141.071V20.6406H140.871ZM140.971 23.7094H142.409V23.5094H140.971V23.7094ZM142.49 23.6683L143.498 22.2855L143.336 22.1677L142.328 23.5505L142.49 23.6683ZM143.317 22.2266V25.5938H143.517V22.2266H143.317ZM143.496 25.5326L142.488 24.2279L142.33 24.3502L143.338 25.6549L143.496 25.5326ZM142.409 24.1891H140.276V24.3891H142.409V24.1891ZM140.176 24.2891V28.6719H140.376V24.2891H140.176ZM140.276 28.7719H140.776V28.5719H140.276V28.7719ZM140.876 28.6719V24.6562H140.676V28.6719H140.876ZM140.776 24.7563H142.471V24.5562H140.776V24.7563ZM142.401 24.727L142.604 24.9301L142.745 24.7887L142.542 24.5855L142.401 24.727ZM142.675 24.7594H140.971V24.9594H142.675V24.7594ZM140.871 24.8594V28.6719H141.071V24.8594H140.871ZM140.971 28.7719C142.035 28.7719 142.804 28.6968 143.269 28.5401L143.205 28.3506C142.774 28.4959 142.033 28.5719 140.971 28.5719V28.7719ZM143.269 28.5401C143.742 28.3806 144.112 28.0666 144.378 27.6046L144.205 27.5047C143.961 27.9282 143.628 28.208 143.205 28.3506L143.269 28.5401ZM144.378 27.605L144.792 26.8941L144.619 26.7934L144.205 27.5044L144.378 27.605ZM144.795 26.8885C144.81 26.8597 144.84 26.8044 144.887 26.7209L144.712 26.6228C144.666 26.706 144.633 26.7653 144.616 26.799L144.795 26.8885ZM144.702 26.6949C144.839 27.2731 145.008 27.7416 145.213 28.0968L145.386 27.997C145.195 27.6646 145.031 27.2165 144.897 26.6489L144.702 26.6949ZM145.213 28.0977C145.423 28.4521 145.763 28.86 146.229 29.3211L146.37 29.1789C145.909 28.7233 145.582 28.3292 145.386 27.996L145.213 28.0977ZM146.3 29.15H137.542V29.35H146.3V29.15ZM137.602 29.3295L138.79 28.4232L138.669 28.2643L137.481 29.1705L137.602 29.3295ZM138.829 28.3438V24.8594H138.629V28.3438H138.829ZM138.717 24.7601C138.266 24.8138 137.856 24.9537 137.489 25.1805L137.594 25.3507C137.935 25.14 138.317 25.0091 138.741 24.9587L138.717 24.7601ZM137.625 25.2102L137.516 25.0461L137.349 25.157L137.458 25.3211L137.625 25.2102ZM137.491 25.1827C137.79 24.9665 138.205 24.8219 138.741 24.7555L138.717 24.557C138.16 24.626 137.71 24.7783 137.374 25.0205L137.491 25.1827ZM138.829 24.6562V24.2891H138.629V24.6562H138.829ZM138.741 24.1897C138.652 24.1793 138.585 24.1734 138.542 24.1734V24.3734C138.572 24.3734 138.629 24.378 138.718 24.3884L138.741 24.1897ZM138.542 24.1734C137.983 24.1734 137.476 24.3796 137.022 24.7848L137.155 24.934C137.576 24.5579 138.038 24.3734 138.542 24.3734V24.1734ZM137.185 24.887C137.3 24.4856 137.487 24.1936 137.739 24.0014C137.991 23.8093 138.319 23.7094 138.729 23.7094V23.5094C138.286 23.5094 137.913 23.6178 137.618 23.8423C137.323 24.0668 137.117 24.3999 136.992 24.8317L137.185 24.887ZM138.829 23.6094V20.2734H138.629V23.6094H138.829ZM138.791 20.1949L137.604 19.2574L137.48 19.4144L138.667 20.3519L138.791 20.1949ZM137.542 19.4359H145.878V19.2359H137.542V19.4359ZM146.174 19.8214L146.119 19.8917L146.277 20.0145L146.332 19.9442L146.174 19.8214ZM146.118 19.8934C145.48 20.7506 145.049 21.4756 144.831 22.0669L145.018 22.1362C145.227 21.5712 145.645 20.864 146.278 20.0128L146.118 19.8934ZM145.002 22.0386L144.869 21.8746L144.714 22.0004L144.847 22.1645L145.002 22.0386ZM144.883 21.9772C145.229 21.1784 145.674 20.4468 146.221 19.7822L146.066 19.6553C145.508 20.3344 145.053 21.0821 144.7 21.8978L144.883 21.9772ZM146.06 19.7742L146.169 19.9383L146.336 19.8273L146.226 19.6633L146.06 19.7742ZM143.856 22.4844V25.9375H144.056V22.4844H143.856ZM144.002 25.8488L143.807 25.7472L143.714 25.9247L143.91 26.0262L144.002 25.8488ZM143.86 25.8359V22.3828H143.66V25.8359H143.86ZM143.714 22.4715L143.91 22.5731L144.002 22.3957L143.807 22.2941L143.714 22.4715ZM147.104 29.2468L146.697 29.95L146.87 30.05L147.277 29.3469L147.104 29.2468ZM146.784 29.9H138.253V30.1H146.784V29.9ZM138.339 29.949L138.214 29.7381L138.042 29.84L138.167 30.051L138.339 29.949ZM138.128 29.8891H146.682V29.6891H138.128V29.8891ZM146.77 29.8366L147.036 29.3444L146.86 29.2494L146.594 29.7416L146.77 29.8366ZM147.016 29.2234C146.275 28.5389 145.756 27.8114 145.455 27.0417L145.269 27.1145C145.583 27.9177 146.121 28.6695 146.88 29.3703L147.016 29.2234ZM145.327 27.1718L145.577 27.2655L145.647 27.0782L145.397 26.9845L145.327 27.1718ZM145.52 27.2114C145.813 27.8932 146.306 28.5703 146.995 29.2434L147.135 29.1004C146.459 28.4401 145.984 27.7839 145.704 27.1324L145.52 27.2114ZM146.994 29.2426L147.119 29.3676L147.261 29.2262L147.136 29.1012L146.994 29.2426ZM156.205 19.3359L156.251 19.4247L156.205 19.2359V19.3359ZM155.057 20.1797L154.974 20.1238L154.973 20.1247L155.057 20.1797ZM154.666 29.3594V29.4594H154.766V29.3594H154.666ZM153.346 29.3594L153.257 29.4052L153.285 29.4594H153.346V29.3594ZM149.659 22.2031L149.747 22.1573L149.559 22.2031H149.659ZM149.659 26.4453L149.759 26.4475V26.4453H149.659ZM149.651 26.7969L149.55 26.7946L149.551 26.8052L149.651 26.7969ZM149.744 27.9219L149.644 27.9302L149.646 27.9415L149.744 27.9219ZM150.455 29.0781L150.522 29.0023L150.511 28.9953L150.455 29.0781ZM150.518 29.1328L150.486 29.2277L150.584 29.0576L150.518 29.1328ZM149.44 26.8281L149.34 26.8271V26.8281H149.44ZM149.448 26.0938L149.548 26.0948V26.0938H149.448ZM149.448 21.8203H149.548V21.7961L149.537 21.7746L149.448 21.8203ZM149.026 21L149.115 20.9543L148.926 21H149.026ZM149.307 28.3047L149.215 28.3437L149.307 28.3047ZM150.627 29.2734L150.7 29.2051L150.682 29.1852L150.655 29.1775L150.627 29.2734ZM151.307 30V30.1H151.537L151.38 29.9317L151.307 30ZM147.073 30L146.987 30.051L147.016 30.1H147.073V30ZM146.948 29.7891V29.6891H146.772L146.862 29.84L146.948 29.7891ZM150.862 29.7891V29.8891H151.094L150.934 29.7204L150.862 29.7891ZM150.455 29.3594L150.528 29.2907L150.498 29.2594H150.455V29.3594ZM146.815 29.3594L146.781 29.2653L146.815 29.4594V29.3594ZM148.393 20.2031H148.493V20.1563L148.457 20.1264L148.393 20.2031ZM147.354 19.3359V19.2359H147.078L147.29 19.4127L147.354 19.3359ZM151.307 19.3359L151.363 19.4191L151.636 19.2359H151.307V19.3359ZM150.198 20.0781L150.142 19.995L150.068 20.0445L150.109 20.1237L150.198 20.0781ZM153.979 27.4531L153.89 27.4987L154.079 27.4531H153.979ZM153.979 26.5156H154.079V26.4914L154.068 26.4699L153.979 26.5156ZM150.737 20.2031L150.681 20.1204L150.607 20.1701L150.648 20.2488L150.737 20.2031ZM151.83 19.4609L151.901 19.3902L151.843 19.3318L151.774 19.3782L151.83 19.4609ZM151.979 19.6094L152.035 19.6922L152.135 19.6243L152.05 19.5387L151.979 19.6094ZM151.01 20.2656L150.954 20.1828L150.881 20.2323L150.921 20.311L151.01 20.2656ZM153.979 26.0938L153.89 26.1391L154.079 26.0938H153.979ZM153.752 20.2188L153.662 20.2616L153.663 20.2635L153.752 20.2188ZM152.659 19.3359V19.2359L152.615 19.426L152.659 19.3359ZM156.479 19.9141L156.565 19.9655L156.677 19.7783L156.462 19.8155L156.479 19.9141ZM156.338 20.1484L156.361 20.2458L156.402 20.2362L156.424 20.1999L156.338 20.1484ZM155.518 20.6719L155.431 20.6223L155.431 20.6228L155.518 20.6719ZM155.307 30V30.1H155.407V30H155.307ZM153.627 30L153.537 30.0434L153.564 30.1H153.627V30ZM153.526 29.7891V29.6891H153.367L153.436 29.8324L153.526 29.7891ZM155.096 29.7891V29.8891H155.196V29.7891H155.096ZM155.377 20.4922L155.294 20.4371L155.294 20.4374L155.377 20.4922ZM156.159 19.2471C155.564 19.5551 155.161 19.846 154.974 20.1238L155.14 20.2355C155.297 20.003 155.659 19.7314 156.251 19.4247L156.159 19.2471ZM154.973 20.1247C154.697 20.5446 154.566 21.1642 154.566 21.9688H154.766C154.766 21.1795 154.896 20.6065 155.141 20.2346L154.973 20.1247ZM154.566 21.9688V22.4766H154.766V21.9688H154.566ZM154.566 22.4766V29.3594H154.766V22.4766H154.566ZM154.666 29.2594H153.346V29.4594H154.666V29.2594ZM153.435 29.3136L149.747 22.1573L149.57 22.2489L153.257 29.4052L153.435 29.3136ZM149.559 22.2031V26.4453H149.759V22.2031H149.559ZM149.559 26.4431L149.551 26.7947L149.751 26.7991L149.759 26.4475L149.559 26.4431ZM149.551 26.8052L149.645 27.9302L149.844 27.9136L149.75 26.7886L149.551 26.8052ZM149.646 27.9415C149.755 28.4829 150.004 28.8935 150.399 29.161L150.511 28.9953C150.167 28.7628 149.943 28.4026 149.843 27.9023L149.646 27.9415ZM150.39 29.1534L150.452 29.2081L150.584 29.0576L150.521 29.0029L150.39 29.1534ZM150.55 29.0379C149.897 28.8204 149.54 28.1165 149.54 26.8281H149.34C149.34 28.1335 149.701 28.9661 150.486 29.2277L150.55 29.0379ZM149.54 26.8292L149.548 26.0948L149.348 26.0927L149.34 26.8271L149.54 26.8292ZM149.548 26.0938V21.8203H149.348V26.0938H149.548ZM149.537 21.7746L149.115 20.9543L148.937 21.0457L149.359 21.866L149.537 21.7746ZM148.926 21V25.5H149.126V21H148.926ZM148.926 25.5C148.926 26.2154 148.949 26.8095 148.997 27.2815C149.044 27.7513 149.115 28.108 149.215 28.3437L149.399 28.2657C149.311 28.0587 149.242 27.7266 149.196 27.2615C149.149 26.7986 149.126 26.2117 149.126 25.5H148.926ZM149.215 28.3437C149.419 28.8256 149.892 29.1622 150.599 29.3694L150.655 29.1775C149.977 28.9785 149.57 28.6692 149.399 28.2657L149.215 28.3437ZM150.554 29.3418L151.234 30.0683L151.38 29.9317L150.7 29.2051L150.554 29.3418ZM151.307 29.9H147.073V30.1H151.307V29.9ZM147.159 29.949L147.034 29.7381L146.862 29.84L146.987 30.051L147.159 29.949ZM146.948 29.8891H150.862V29.6891H146.948V29.8891ZM150.934 29.7204L150.528 29.2907L150.383 29.4281L150.789 29.8578L150.934 29.7204ZM150.455 29.2594H146.815V29.4594H150.455V29.2594ZM146.849 29.4534C147.495 29.2203 147.943 28.9012 148.168 28.4851L147.992 28.3899C147.801 28.7446 147.405 29.0401 146.781 29.2653L146.849 29.4534ZM148.168 28.4851C148.39 28.076 148.493 27.3924 148.493 26.4531H148.293C148.293 27.3889 148.188 28.0282 147.992 28.3899L148.168 28.4851ZM148.493 26.4531V20.2031H148.293V26.4531H148.493ZM148.457 20.1264L147.418 19.2592L147.29 19.4127L148.329 20.2799L148.457 20.1264ZM147.354 19.4359H151.307V19.2359H147.354V19.4359ZM151.251 19.2528L150.142 19.995L150.253 20.1612L151.363 19.4191L151.251 19.2528ZM150.109 20.1237L153.89 27.4987L154.068 27.4075L150.287 20.0325L150.109 20.1237ZM154.079 27.4531V26.5156H153.879V27.4531H154.079ZM154.068 26.4699L150.826 20.1574L150.648 20.2488L153.89 26.5613L154.068 26.4699ZM150.793 20.2859L151.887 19.5437L151.774 19.3782L150.681 20.1204L150.793 20.2859ZM151.76 19.5316L151.908 19.6801L152.05 19.5387L151.901 19.3902L151.76 19.5316ZM151.923 19.5266L150.954 20.1828L151.066 20.3484L152.035 19.6922L151.923 19.5266ZM150.921 20.311L153.89 26.1391L154.068 26.0484L151.099 20.2202L150.921 20.311ZM154.079 26.0938V22.4453H153.879V26.0938H154.079ZM154.079 22.4453V22.0312H153.879V22.4453H154.079ZM154.079 22.0312C154.079 21.5758 154.06 21.1937 154.021 20.886C153.983 20.5802 153.925 20.3403 153.842 20.174L153.663 20.2635C153.731 20.3993 153.786 20.6125 153.823 20.9108C153.86 21.2073 153.879 21.5805 153.879 22.0312H154.079ZM153.843 20.1759C153.681 19.8362 153.29 19.5293 152.702 19.2459L152.615 19.426C153.194 19.7051 153.531 19.9867 153.662 20.2616L153.843 20.1759ZM152.659 19.4359H156.205V19.2359H152.659V19.4359ZM156.393 19.8626L156.252 20.097L156.424 20.1999L156.565 19.9655L156.393 19.8626ZM156.315 20.0511C155.898 20.1485 155.596 20.3345 155.431 20.6223L155.605 20.7215C155.732 20.4988 155.976 20.3358 156.361 20.2458L156.315 20.0511ZM155.431 20.6228C155.277 20.8969 155.207 21.3441 155.207 21.9453H155.407C155.407 21.3486 155.478 20.9468 155.605 20.7209L155.431 20.6228ZM155.207 21.9453V30H155.407V21.9453H155.207ZM155.307 29.9H153.627V30.1H155.307V29.9ZM153.717 29.9566L153.616 29.7457L153.436 29.8324L153.537 30.0434L153.717 29.9566ZM153.526 29.8891H155.096V29.6891H153.526V29.8891ZM155.196 29.7891V22.0234H154.996V29.7891H155.196ZM155.196 22.0234C155.196 21.2908 155.291 20.8069 155.461 20.547L155.294 20.4374C155.089 20.7504 154.996 21.2873 154.996 22.0234H155.196ZM155.461 20.5473C155.631 20.289 155.966 20.1043 156.496 20.0126L156.462 19.8155C155.908 19.9113 155.509 20.1121 155.294 20.4371L155.461 20.5473Z" fill="white"/>
<path d="M23.3471 5.17617C21.6866 5.50651 19.5957 6.704 18.3862 8.02537C15.7828 10.8333 15.1678 14.4051 16.3977 19.4015C16.9102 21.4868 16.9102 21.941 16.3772 23.3863C15.8443 24.8315 14.8398 25.9877 13.2203 27.0201C11.9698 27.8046 9.83789 28.6718 9.05891 28.7131C8.85392 28.7131 9.20241 28.9195 9.81739 29.1466C10.6169 29.4357 11.4779 29.5596 12.7898 29.5802C14.9423 29.6009 16.4592 29.2086 18.3862 28.1556C19.0832 27.784 19.6572 27.5362 19.6572 27.6395C19.6572 28.0317 23.0191 32.863 24.618 34.7831C25.5815 35.9187 27.6725 38.1278 29.2714 39.6763L32.2029 42.5255L32.8589 42.0713C33.6788 41.4725 38.5577 36.6 39.8697 35.0515L40.8742 33.854L42.1246 34.2463C44.7691 35.0928 47.6595 35.2786 50.7344 34.8038C52.6409 34.5147 55.7363 33.6889 55.7363 33.4617C55.7363 33.3998 54.9778 33.1727 54.0554 32.9456C51.5134 32.3881 48.09 31.2319 45.9376 30.2203L44.0311 29.3325L44.5231 28.5273C47.4955 23.7992 49.361 17.0272 48.7665 13.1457C48.131 8.97511 45.0151 5.79556 40.8537 5.11423C38.2502 4.68065 35.0728 5.63039 33.2278 7.42663L32.3464 8.29377L31.4444 7.44727C29.3124 5.46522 26.258 4.59807 23.3471 5.17617ZM34.6628 13.1457C34.3143 16.0155 34.4578 19.4015 35.0318 21.4662C36.8768 28.0524 41.6532 31.7894 49.9965 33.1108C51.1649 33.3172 52.1694 33.503 52.2309 33.565C52.4359 33.7508 50.0375 33.6269 47.967 33.3379C39.8902 32.161 34.6628 27.784 32.8179 20.661L32.4284 19.1538L32.0799 20.3719C31.5674 22.0236 31.4239 26.6691 31.7519 31.0048C31.8954 32.9249 31.9569 34.5354 31.9159 34.5766C31.8749 34.6179 30.7474 32.6359 29.3944 30.1377C28.062 27.6395 26.914 25.5955 26.832 25.5955C26.75 25.5955 26.5245 26.8549 26.3195 28.3827C26.094 29.9725 25.848 31.1493 25.725 31.1081C25.274 30.9635 22.6501 26.9994 21.5841 24.8315L20.4361 22.5191L19.8212 23.7786C19.0217 25.3684 17.2177 27.2265 15.7623 27.9285C14.5323 28.5273 12.8923 28.8989 11.5804 28.8782C10.7809 28.8576 10.8014 28.8576 11.9903 28.5892C16.5822 27.5775 19.0422 24.2328 19.1242 18.9267C19.1447 16.924 19.0217 17.1098 20.7026 16.8207C21.4406 16.7175 21.4406 16.7175 21.5841 17.564C21.9531 19.8351 24.1876 25.5129 24.4336 24.7696C24.5361 24.4599 25.397 18.6376 25.397 18.3073C25.397 17.8324 25.9095 18.6376 27.365 21.3629C29.0459 24.5218 29.2919 24.687 29.2919 22.7876C29.2919 21.301 29.9889 18.7615 30.9114 16.8414C31.5674 15.4787 34.6218 10.9365 34.8883 10.9365C34.9293 10.9365 34.8268 11.9275 34.6628 13.1457Z" fill="white"/>
<rect width="171" height="49" rx="14" fill="white" fill-opacity="0.1"/>
</svg>
