<svg width="62" height="50" viewBox="0 0 62 50" fill="none" xmlns="http://www.w3.org/2000/svg">
<path d="M19.0327 0.23473C16.83 0.674885 14.0561 2.27046 12.4516 4.03109C8.99794 7.77242 8.18211 12.5316 9.81378 19.189C10.4936 21.9675 10.4936 22.5727 9.78658 24.4984C9.07953 26.4241 7.747 27.9646 5.59863 29.3401C3.93977 30.3855 1.11154 31.5409 0.0781511 31.5959C-0.193794 31.5959 0.268512 31.871 1.08435 32.1736C2.14493 32.5588 3.2871 32.7238 5.02755 32.7513C7.88297 32.7789 9.89536 32.2562 12.4516 30.8532C13.3763 30.358 14.1377 30.0279 14.1377 30.1654C14.1377 30.6881 18.5976 37.1254 20.7188 39.6838C21.9969 41.1969 24.7707 44.1404 26.8919 46.2036L30.7807 50L31.651 49.3948C32.7387 48.597 39.211 42.1047 40.9515 40.0414L42.284 38.4459L43.9429 38.9686C47.451 40.0965 51.2854 40.3441 55.3645 39.7113C57.8936 39.3262 62 38.2258 62 37.9232C62 37.8407 60.9938 37.538 59.7701 37.2354C56.3979 36.4927 51.8565 34.9521 49.001 33.6041L46.472 32.4212L47.1246 31.3483C51.0678 25.0486 53.5425 16.0254 52.7539 10.8535C51.9108 5.29654 47.7773 1.06002 42.2568 0.152199C38.8031 -0.425507 34.588 0.839947 32.1405 3.2333L30.9711 4.38871L29.7745 3.26081C26.9463 0.619865 22.8943 -0.535545 19.0327 0.23473ZM34.0441 10.8535C33.5818 14.6774 33.7721 19.189 34.5336 21.94C36.9811 30.7156 43.3174 35.6949 54.3855 37.4555C55.9356 37.7306 57.2682 37.9782 57.3497 38.0607C57.6217 38.3083 54.4399 38.1433 51.6933 37.7581C40.9787 36.1901 34.0441 30.358 31.5966 20.8671L31.0799 18.8589L30.6176 20.482C29.9377 22.6827 29.7473 28.8725 30.1824 34.6495C30.3728 37.2079 30.4544 39.3537 30.4 39.4087C30.3456 39.4637 28.8499 36.8228 27.0551 33.4941C25.2874 30.1654 23.7646 27.4419 23.6558 27.4419C23.547 27.4419 23.2479 29.12 22.9759 31.1558C22.6768 33.274 22.3504 34.8421 22.1873 34.7871C21.589 34.5945 18.1081 29.3126 16.694 26.4241L15.1711 23.343L14.3553 25.0211C13.2947 27.1393 10.9016 29.6152 8.97075 30.5506C7.33908 31.3483 5.16352 31.8435 3.42307 31.816C2.36249 31.7885 2.38968 31.7885 3.96696 31.4309C10.0585 30.0829 13.3219 25.6263 13.4306 18.5563C13.4578 15.8878 13.2947 16.1354 15.5246 15.7503C16.5036 15.6127 16.5036 15.6127 16.694 16.7406C17.1835 19.7667 20.1477 27.3319 20.474 26.3416C20.61 25.9289 21.7522 18.1711 21.7522 17.731C21.7522 17.0983 22.432 18.1711 24.3628 21.8024C26.5928 26.0114 26.9191 26.2315 26.9191 23.7006C26.9191 21.7199 27.8437 18.3362 29.0675 15.7778C29.9377 13.9621 33.9897 7.90997 34.3432 7.90997C34.3976 7.90997 34.2616 9.23044 34.0441 10.8535Z" fill="url(#paint0_linear_467_77)"/>
<defs>
<linearGradient id="paint0_linear_467_77" x1="39.0776" y1="42.8532" x2="-15.535" y2="-7.42004" gradientUnits="userSpaceOnUse">
<stop stop-color="#2732EB"/>
<stop offset="1" stop-color="#D027EB" stop-opacity="0"/>
</linearGradient>
</defs>
</svg>
