<svg width="256" height="83" viewBox="0 0 256 83" fill="none" xmlns="http://www.w3.org/2000/svg">
<rect x="6.95312" y="7" width="242.094" height="69" rx="6" fill="url(#paint0_linear_447_18)"/>
<path d="M86.7734 41.5859H91.3047V47.5078C90.7057 47.7057 90.0833 47.8646 89.4375 47.9844C88.7917 48.099 88.0599 48.1562 87.2422 48.1562C86.1068 48.1562 85.1432 47.9323 84.3516 47.4844C83.5599 47.0365 82.9583 46.375 82.5469 45.5C82.1354 44.625 81.9297 43.5495 81.9297 42.2734C81.9297 41.0755 82.1589 40.0391 82.6172 39.1641C83.0807 38.2891 83.7552 37.612 84.6406 37.1328C85.5312 36.6536 86.6172 36.4141 87.8984 36.4141C88.5026 36.4141 89.099 36.4792 89.6875 36.6094C90.276 36.7396 90.8099 36.9089 91.2891 37.1172L90.4844 39.0547C90.1354 38.8776 89.737 38.7292 89.2891 38.6094C88.8411 38.4896 88.3724 38.4297 87.8828 38.4297C87.1797 38.4297 86.5677 38.5911 86.0469 38.9141C85.5312 39.237 85.1302 39.6901 84.8438 40.2734C84.5625 40.8516 84.4219 41.5339 84.4219 42.3203C84.4219 43.0651 84.5234 43.7266 84.7266 44.3047C84.9297 44.8776 85.25 45.3281 85.6875 45.6562C86.125 45.9792 86.6953 46.1406 87.3984 46.1406C87.7422 46.1406 88.0312 46.125 88.2656 46.0938C88.5052 46.0573 88.7292 46.0208 88.9375 45.9844V43.6016H86.7734V41.5859ZM97.4453 39.1016C98.2526 39.1016 98.9479 39.2578 99.5312 39.5703C100.115 39.8776 100.565 40.3255 100.883 40.9141C101.201 41.5026 101.359 42.2214 101.359 43.0703V44.2266H95.7266C95.7526 44.8984 95.9531 45.4271 96.3281 45.8125C96.7083 46.1927 97.2344 46.3828 97.9062 46.3828C98.4635 46.3828 98.974 46.3255 99.4375 46.2109C99.901 46.0964 100.378 45.9245 100.867 45.6953V47.5391C100.435 47.7526 99.9818 47.9089 99.5078 48.0078C99.0391 48.1068 98.4688 48.1562 97.7969 48.1562C96.9219 48.1562 96.1458 47.9948 95.4688 47.6719C94.7969 47.349 94.2682 46.8568 93.8828 46.1953C93.5026 45.5339 93.3125 44.7005 93.3125 43.6953C93.3125 42.6745 93.4844 41.8255 93.8281 41.1484C94.1771 40.4661 94.6615 39.9557 95.2812 39.6172C95.901 39.2734 96.6224 39.1016 97.4453 39.1016ZM97.4609 40.7969C96.9974 40.7969 96.612 40.9453 96.3047 41.2422C96.0026 41.5391 95.8281 42.0052 95.7812 42.6406H99.125C99.1198 42.2865 99.0547 41.9714 98.9297 41.6953C98.8099 41.4193 98.6276 41.2005 98.3828 41.0391C98.1432 40.8776 97.8359 40.7969 97.4609 40.7969ZM106.977 46.2578C107.237 46.2578 107.49 46.2318 107.734 46.1797C107.984 46.1276 108.232 46.0625 108.477 45.9844V47.7578C108.221 47.8724 107.904 47.9661 107.523 48.0391C107.148 48.1172 106.737 48.1562 106.289 48.1562C105.768 48.1562 105.299 48.0729 104.883 47.9062C104.471 47.7344 104.146 47.4401 103.906 47.0234C103.672 46.6016 103.555 46.0156 103.555 45.2656V41.0547H102.414V40.0469L103.727 39.25L104.414 37.4062H105.938V39.2656H108.383V41.0547H105.938V45.2656C105.938 45.599 106.031 45.849 106.219 46.0156C106.411 46.1771 106.664 46.2578 106.977 46.2578ZM121.336 44.8281C121.336 45.5052 121.172 46.0938 120.844 46.5938C120.516 47.0938 120.036 47.4792 119.406 47.75C118.781 48.0208 118.021 48.1562 117.125 48.1562C116.729 48.1562 116.341 48.1302 115.961 48.0781C115.586 48.026 115.224 47.9505 114.875 47.8516C114.531 47.7474 114.203 47.6198 113.891 47.4688V45.2188C114.432 45.4583 114.995 45.6745 115.578 45.8672C116.161 46.0599 116.74 46.1562 117.312 46.1562C117.708 46.1562 118.026 46.1042 118.266 46C118.51 45.8958 118.688 45.7526 118.797 45.5703C118.906 45.388 118.961 45.1797 118.961 44.9453C118.961 44.6589 118.865 44.4141 118.672 44.2109C118.479 44.0078 118.214 43.8177 117.875 43.6406C117.542 43.4635 117.164 43.2734 116.742 43.0703C116.477 42.9453 116.188 42.7943 115.875 42.6172C115.562 42.4349 115.266 42.2135 114.984 41.9531C114.703 41.6927 114.471 41.3776 114.289 41.0078C114.112 40.6328 114.023 40.1849 114.023 39.6641C114.023 38.9818 114.18 38.3984 114.492 37.9141C114.805 37.4297 115.25 37.0599 115.828 36.8047C116.411 36.5443 117.099 36.4141 117.891 36.4141C118.484 36.4141 119.049 36.4844 119.586 36.625C120.128 36.7604 120.693 36.9583 121.281 37.2188L120.5 39.1016C119.974 38.888 119.503 38.724 119.086 38.6094C118.669 38.4896 118.245 38.4297 117.812 38.4297C117.51 38.4297 117.253 38.4792 117.039 38.5781C116.826 38.6719 116.664 38.8073 116.555 38.9844C116.445 39.1562 116.391 39.3568 116.391 39.5859C116.391 39.8568 116.469 40.0859 116.625 40.2734C116.786 40.4557 117.026 40.6328 117.344 40.8047C117.667 40.9766 118.068 41.1771 118.547 41.4062C119.13 41.6823 119.628 41.9714 120.039 42.2734C120.456 42.5703 120.776 42.9219 121 43.3281C121.224 43.7292 121.336 44.2292 121.336 44.8281ZM126.898 46.2578C127.159 46.2578 127.411 46.2318 127.656 46.1797C127.906 46.1276 128.154 46.0625 128.398 45.9844V47.7578C128.143 47.8724 127.826 47.9661 127.445 48.0391C127.07 48.1172 126.659 48.1562 126.211 48.1562C125.69 48.1562 125.221 48.0729 124.805 47.9062C124.393 47.7344 124.068 47.4401 123.828 47.0234C123.594 46.6016 123.477 46.0156 123.477 45.2656V41.0547H122.336V40.0469L123.648 39.25L124.336 37.4062H125.859V39.2656H128.305V41.0547H125.859V45.2656C125.859 45.599 125.953 45.849 126.141 46.0156C126.333 46.1771 126.586 46.2578 126.898 46.2578ZM133.75 39.0859C134.922 39.0859 135.82 39.3411 136.445 39.8516C137.07 40.362 137.383 41.138 137.383 42.1797V48H135.719L135.258 46.8125H135.195C134.945 47.125 134.69 47.3802 134.43 47.5781C134.169 47.776 133.87 47.9219 133.531 48.0156C133.193 48.1094 132.781 48.1562 132.297 48.1562C131.781 48.1562 131.318 48.0573 130.906 47.8594C130.5 47.6615 130.18 47.3594 129.945 46.9531C129.711 46.5417 129.594 46.0208 129.594 45.3906C129.594 44.4635 129.919 43.7812 130.57 43.3438C131.221 42.901 132.198 42.6562 133.5 42.6094L135.016 42.5625V42.1797C135.016 41.7214 134.896 41.3854 134.656 41.1719C134.417 40.9583 134.083 40.8516 133.656 40.8516C133.234 40.8516 132.82 40.9115 132.414 41.0312C132.008 41.151 131.602 41.3021 131.195 41.4844L130.406 39.875C130.87 39.6302 131.388 39.4375 131.961 39.2969C132.539 39.1562 133.135 39.0859 133.75 39.0859ZM135.016 43.9531L134.094 43.9844C133.323 44.0052 132.786 44.1432 132.484 44.3984C132.188 44.6536 132.039 44.9896 132.039 45.4062C132.039 45.7708 132.146 46.0312 132.359 46.1875C132.573 46.3385 132.852 46.4141 133.195 46.4141C133.706 46.4141 134.135 46.263 134.484 45.9609C134.839 45.6589 135.016 45.2292 135.016 44.6719V43.9531ZM144.719 39.1016C144.839 39.1016 144.977 39.1094 145.133 39.125C145.294 39.1354 145.424 39.151 145.523 39.1719L145.344 41.4062C145.266 41.3802 145.154 41.362 145.008 41.3516C144.867 41.3359 144.745 41.3281 144.641 41.3281C144.333 41.3281 144.034 41.3672 143.742 41.4453C143.456 41.5234 143.198 41.651 142.969 41.8281C142.74 42 142.557 42.2292 142.422 42.5156C142.292 42.7969 142.227 43.1432 142.227 43.5547V48H139.844V39.2656H141.648L142 40.7344H142.117C142.289 40.4375 142.503 40.1667 142.758 39.9219C143.018 39.6719 143.312 39.474 143.641 39.3281C143.974 39.1771 144.333 39.1016 144.719 39.1016ZM150.789 46.2578C151.049 46.2578 151.302 46.2318 151.547 46.1797C151.797 46.1276 152.044 46.0625 152.289 45.9844V47.7578C152.034 47.8724 151.716 47.9661 151.336 48.0391C150.961 48.1172 150.549 48.1562 150.102 48.1562C149.581 48.1562 149.112 48.0729 148.695 47.9062C148.284 47.7344 147.958 47.4401 147.719 47.0234C147.484 46.6016 147.367 46.0156 147.367 45.2656V41.0547H146.227V40.0469L147.539 39.25L148.227 37.4062H149.75V39.2656H152.195V41.0547H149.75V45.2656C149.75 45.599 149.844 45.849 150.031 46.0156C150.224 46.1771 150.477 46.2578 150.789 46.2578ZM157.664 39.1016C158.471 39.1016 159.167 39.2578 159.75 39.5703C160.333 39.8776 160.784 40.3255 161.102 40.9141C161.419 41.5026 161.578 42.2214 161.578 43.0703V44.2266H155.945C155.971 44.8984 156.172 45.4271 156.547 45.8125C156.927 46.1927 157.453 46.3828 158.125 46.3828C158.682 46.3828 159.193 46.3255 159.656 46.2109C160.12 46.0964 160.596 45.9245 161.086 45.6953V47.5391C160.654 47.7526 160.201 47.9089 159.727 48.0078C159.258 48.1068 158.688 48.1562 158.016 48.1562C157.141 48.1562 156.365 47.9948 155.688 47.6719C155.016 47.349 154.487 46.8568 154.102 46.1953C153.721 45.5339 153.531 44.7005 153.531 43.6953C153.531 42.6745 153.703 41.8255 154.047 41.1484C154.396 40.4661 154.88 39.9557 155.5 39.6172C156.12 39.2734 156.841 39.1016 157.664 39.1016ZM157.68 40.7969C157.216 40.7969 156.831 40.9453 156.523 41.2422C156.221 41.5391 156.047 42.0052 156 42.6406H159.344C159.339 42.2865 159.273 41.9714 159.148 41.6953C159.029 41.4193 158.846 41.2005 158.602 41.0391C158.362 40.8776 158.055 40.7969 157.68 40.7969ZM166.281 48.1562C165.307 48.1562 164.513 47.776 163.898 47.0156C163.289 46.25 162.984 45.1276 162.984 43.6484C162.984 42.1536 163.294 41.0234 163.914 40.2578C164.534 39.487 165.344 39.1016 166.344 39.1016C166.76 39.1016 167.128 39.1589 167.445 39.2734C167.763 39.388 168.036 39.5417 168.266 39.7344C168.5 39.9271 168.698 40.1432 168.859 40.3828H168.938C168.906 40.2161 168.867 39.9714 168.82 39.6484C168.779 39.3203 168.758 38.9844 168.758 38.6406V35.8438H171.148V48H169.32L168.859 46.8672H168.758C168.607 47.1068 168.417 47.3255 168.188 47.5234C167.964 47.7161 167.695 47.8698 167.383 47.9844C167.07 48.099 166.703 48.1562 166.281 48.1562ZM167.117 46.2578C167.768 46.2578 168.227 46.0651 168.492 45.6797C168.763 45.2891 168.906 44.7031 168.922 43.9219V43.6641C168.922 42.8151 168.792 42.1667 168.531 41.7188C168.271 41.2656 167.786 41.0391 167.078 41.0391C166.552 41.0391 166.141 41.2656 165.844 41.7188C165.547 42.1719 165.398 42.8255 165.398 43.6797C165.398 44.5339 165.547 45.1771 165.844 45.6094C166.146 46.0417 166.57 46.2578 167.117 46.2578Z" fill="white"/>
<path d="M220.981 42.7071C221.371 42.3166 221.371 41.6834 220.981 41.2929L214.617 34.9289C214.226 34.5384 213.593 34.5384 213.202 34.9289C212.812 35.3195 212.812 35.9526 213.202 36.3431L218.859 42L213.202 47.6569C212.812 48.0474 212.812 48.6805 213.202 49.0711C213.593 49.4616 214.226 49.4616 214.617 49.0711L220.981 42.7071ZM219.281 43H220.273V41H219.281V43Z" fill="white"/>
<path d="M226.048 42.8132C226.497 42.3641 226.497 41.6359 226.048 41.1868L218.729 33.8683C218.28 33.4192 217.552 33.4192 217.103 33.8683C216.654 34.3174 216.654 35.0455 217.103 35.4946L223.608 42L217.103 48.5054C216.654 48.9545 216.654 49.6826 217.103 50.1317C217.552 50.5808 218.28 50.5808 218.729 50.1317L226.048 42.8132ZM224.242 43.15H225.234V40.85H224.242V43.15Z" fill="white"/>
<path d="M232.107 42.9192C232.614 42.4116 232.614 41.5884 232.107 41.0808L223.834 32.8076C223.326 32.2999 222.503 32.2999 221.995 32.8076C221.487 33.3153 221.487 34.1384 221.995 34.6461L229.349 42L221.995 49.3539C221.487 49.8616 221.487 50.6847 221.995 51.1924C222.503 51.7001 223.326 51.7001 223.834 51.1924L232.107 42.9192ZM230.195 43.3H231.188V40.7H230.195V43.3Z" fill="white"/>
<path d="M249 1H7C3.68629 1 1 3.6863 1 7.00001V74.5876C1 77.888 3.66552 80.5687 6.96584 80.5875L248.966 81.9656C252.293 81.9846 255 79.2928 255 75.9657V7C255 3.68629 252.314 1 249 1Z" stroke="#2732EB" stroke-width="2"/>
<defs>
<linearGradient id="paint0_linear_447_18" x1="253.449" y1="243.427" x2="-10.5843" y2="-102.34" gradientUnits="userSpaceOnUse">
<stop offset="0.569932" stop-color="#2732EB"/>
<stop offset="1" stop-color="#9095F0" stop-opacity="0.283143"/>
</linearGradient>
</defs>
</svg>
