<svg width="82" height="82" viewBox="0 0 82 82" fill="none" xmlns="http://www.w3.org/2000/svg">
<path d="M76.2063 61.256C72.4833 67.4179 67.1697 72.4921 60.8093 75.9592C54.4489 79.4263 47.2701 81.1618 40.0077 80.9881C32.7453 80.8145 25.6599 78.7378 19.4769 74.9708C13.2938 71.2037 8.23495 65.8815 4.81812 59.5488L6.80931 58.5005C10.0381 64.4847 14.8185 69.514 20.6613 73.0737C26.5042 76.6335 33.1996 78.5958 40.0623 78.76C46.9251 78.9241 53.7088 77.2841 59.7191 74.0078C65.7295 70.7315 70.7507 65.9366 74.2688 60.1137L76.2063 61.256Z" fill="#2732EB"/>
<path d="M4.43384 59.6525C1.28161 53.406 -0.234848 46.4452 0.02948 39.4359C0.293816 32.4265 2.3301 25.6031 5.9436 19.618C9.55709 13.633 14.6269 8.68659 20.6683 5.25182C26.7096 1.81705 33.5205 0.00880432 40.4493 3.05176e-05L40.4521 2.25637C33.9046 2.26466 27.4686 3.97339 21.7597 7.21914C16.0508 10.4649 11.26 15.1391 7.84533 20.7948C4.43069 26.4504 2.50648 32.8984 2.25669 39.522C2.0069 46.1455 3.43991 52.7232 6.41866 58.626L4.43384 59.6525Z" fill="white"/>
<path d="M41 0C48.2855 0 55.4395 1.91766 61.7257 5.55562C68.0118 9.19358 73.2031 14.4204 76.7652 20.6983C80.3273 26.9761 82.1317 34.0782 81.9925 41.2736C81.8534 48.469 79.7757 55.4978 75.9735 61.6366L74.0488 60.4734C77.6418 54.6724 79.6051 48.0304 79.7366 41.231C79.8681 34.4316 78.1631 27.7204 74.797 21.788C71.4309 15.8557 66.5253 10.9165 60.5851 7.47871C54.6449 4.04095 47.8846 2.22883 41 2.22883V0Z" fill="#2732EB"/>
<circle cx="41.5" cy="40.5" r="34.5" fill="#2732EB"/>
<path d="M60.0607 41.0607C60.6464 40.4749 60.6464 39.5251 60.0607 38.9393L50.5147 29.3934C49.9289 28.8076 48.9792 28.8076 48.3934 29.3934C47.8076 29.9792 47.8076 30.9289 48.3934 31.5147L56.8787 40L48.3934 48.4853C47.8076 49.0711 47.8076 50.0208 48.3934 50.6066C48.9792 51.1924 49.9289 51.1924 50.5147 50.6066L60.0607 41.0607ZM23 41.5H59V38.5H23V41.5Z" fill="white"/>
</svg>
