<svg width="41" height="34" viewBox="0 0 41 34" fill="none" xmlns="http://www.w3.org/2000/svg">
<path d="M7.49433 5.83274L4.97378 3.56897C3.4403 2.1917 1 3.28003 1 5.34121V10.7849C1 11.874 1.73869 12.8244 2.79412 13.0932L9.85811 14.8925C12.2712 15.5072 12.2421 18.9452 9.81893 19.5189L2.83329 21.1728C1.75882 21.4272 1 22.3866 1 23.4908V28.8377C1 30.798 3.23562 31.9192 4.8067 30.7468L7.66976 28.6104L15.4941 23.6464C15.8757 23.4043 16.3183 23.2758 16.7702 23.2758H22.0588C22.3091 23.2758 22.558 23.2363 22.796 23.1588L34.0662 19.4904C36.2409 18.7826 36.2655 15.7148 34.1024 14.9723L22.8126 11.0964C22.5637 11.0109 22.3024 10.9673 22.0392 10.9673H16.7305C16.3036 10.9673 15.8845 10.8526 15.5171 10.6351L7.87269 6.11041C7.73774 6.03053 7.611 5.93752 7.49433 5.83274Z" fill="#030000" stroke="black" stroke-width="0.595522"/>
<path d="M18.4033 12.9939C18.0233 13.0695 17.5448 13.3436 17.2681 13.646C16.6723 14.2885 16.5316 15.1059 16.813 16.2493C16.9303 16.7265 16.9303 16.8304 16.8083 17.1612C16.6864 17.4919 16.4565 17.7565 16.0859 17.9927C15.7997 18.1723 15.3119 18.3707 15.1336 18.3802C15.0867 18.3802 15.1664 18.4274 15.3072 18.4794C15.4901 18.5455 15.6872 18.5739 15.9874 18.5786C16.48 18.5833 16.8271 18.4936 17.2681 18.2526C17.4276 18.1675 17.5589 18.1109 17.5589 18.1345C17.5589 18.2242 18.3283 19.3298 18.6942 19.7692C18.9147 20.0291 19.3931 20.5346 19.7591 20.889L20.4299 21.541L20.58 21.4371C20.7676 21.3001 21.8841 20.185 22.1844 19.8307L22.4142 19.5566L22.7004 19.6464C23.3056 19.8401 23.967 19.8826 24.6707 19.774C25.1069 19.7078 25.8153 19.5188 25.8153 19.4669C25.8153 19.4527 25.6417 19.4007 25.4306 19.3487C24.8489 19.2212 24.0655 18.9566 23.5729 18.7251L23.1367 18.5219L23.2493 18.3376C23.9295 17.2557 24.3564 15.706 24.2203 14.8177C24.0749 13.8633 23.3618 13.1357 22.4095 12.9798C21.8138 12.8806 21.0866 13.0979 20.6644 13.5089L20.4627 13.7074L20.2563 13.5137C19.7684 13.0601 19.0695 12.8617 18.4033 12.9939ZM20.9928 14.8177C20.9131 15.4744 20.9459 16.2493 21.0773 16.7218C21.4995 18.229 22.5925 19.0841 24.5018 19.3865C24.7692 19.4338 24.9991 19.4763 25.0131 19.4905C25.06 19.533 24.5112 19.5047 24.0374 19.4385C22.1891 19.1692 20.9928 18.1675 20.5706 16.5375L20.4815 16.1926L20.4017 16.4714C20.2845 16.8493 20.2516 17.9124 20.3267 18.9046C20.3595 19.344 20.3736 19.7125 20.3642 19.722C20.3548 19.7314 20.0968 19.2779 19.7872 18.7062C19.4823 18.1345 19.2196 17.6667 19.2008 17.6667C19.182 17.6667 19.1304 17.9549 19.0835 18.3046C19.0319 18.6684 18.9756 18.9377 18.9475 18.9282C18.8443 18.8952 18.2438 17.988 17.9999 17.4919L17.7372 16.9627L17.5964 17.2509C17.4135 17.6148 17.0007 18.04 16.6676 18.2006C16.3861 18.3376 16.0108 18.4227 15.7106 18.418C15.5277 18.4132 15.5323 18.4132 15.8044 18.3518C16.8552 18.1203 17.4182 17.3549 17.4369 16.1406C17.4416 15.6823 17.4135 15.7249 17.7982 15.6587C17.967 15.6351 17.967 15.6351 17.9999 15.8288C18.0843 16.3485 18.5957 17.6478 18.6519 17.4777C18.6754 17.4069 18.8724 16.0745 18.8724 15.9989C18.8724 15.8902 18.9897 16.0745 19.3228 16.6982C19.7075 17.421 19.7637 17.4588 19.7637 17.0242C19.7637 16.684 19.9232 16.1028 20.1343 15.6634C20.2845 15.3516 20.9834 14.3122 21.0444 14.3122C21.0538 14.3122 21.0304 14.5389 20.9928 14.8177Z" fill="#C3C3C8"/>
</svg>
